<?xml version="1.0" encoding="utf-8"?>
<!-- Generator: Adobe Illustrator 23.0.3, SVG Export Plug-In . SVG Version: 6.00 Build 0)  -->
<svg version="1.1" id="Layer_1" xmlns="http://www.w3.org/2000/svg" xmlns:xlink="http://www.w3.org/1999/xlink" x="0px" y="0px"
	 width="1010px" height="243.4px" viewBox="0 0 1010 243.4" style="enable-background:new 0 0 1010 243.4;" xml:space="preserve">
<style type="text/css">
	.st0{fill:#FFFFFF;}
	.st1{opacity:0.2;}
	.st2{opacity:0.99;fill:#C8C8C8;enable-background:new    ;}
	.st3{opacity:0.69;fill:url(#SVGID_1_);enable-background:new    ;}
	.st4{opacity:0.3;fill:url(#SVGID_2_);enable-background:new    ;}
	.st5{clip-path:url(#SVGID_5_);}
	.st6{clip-path:url(#SVGID_6_);}
	.st7{fill:url(#SVGID_7_);}
	.st8{opacity:0.3;fill:url(#SVGID_8_);enable-background:new    ;}
	.st9{opacity:0.15;}
	.st10{fill-rule:evenodd;clip-rule:evenodd;fill:#EE6F9B;}
</style>
<title>map</title>
<g>
	<g id="Layer_1-2">
		<polygon class="st0" points="0,184.9 219.2,0 322.6,21.3 127.4,237.1 		"/>
		<polygon class="st0" points="787.9,213 666.4,0.5 824.3,21.7 1010,238.4 		"/>
		<polygon class="st0" points="557.7,243.4 545.7,22.8 666.4,0.5 796.4,212.6 561.5,243.4 		"/>
		<polygon class="st0" points="314.3,20.3 453.2,0.5 350.4,214.7 127.4,237.1 		"/>
		<polygon class="st0" points="341.9,214.2 453.2,0.5 553,22.9 557.7,243.4 		"/>
		<g class="st1">
			<polygon class="st2" points="130.8,233.9 7.3,183.9 220,4.1 316.2,23.9 			"/>
		</g>
		<g class="st1">
			<polygon class="st2" points="790.1,209.9 1001,233.9 822.6,25.3 668.2,4.1 			"/>
		</g>
		
			<linearGradient id="SVGID_1_" gradientUnits="userSpaceOnUse" x1="130.8" y1="127.51" x2="451.69" y2="127.51" gradientTransform="matrix(1 0 0 -1 0 246)">
			<stop  offset="1.000000e-02" style="stop-color:#FFFFFF"/>
			<stop  offset="1" style="stop-color:#FFFFFF"/>
		</linearGradient>
		<polygon class="st3" points="130.8,233.4 316.2,23.4 451.7,3.6 347.9,211 		"/>
		<g class="st1">
			<polygon class="st2" points="347.9,211.5 557.7,239.8 549.5,26 451.7,4.1 			"/>
		</g>
		<g>
			
				<linearGradient id="SVGID_2_" gradientUnits="userSpaceOnUse" x1="127.45" y1="16.805" x2="557.65" y2="16.805" gradientTransform="matrix(1 0 0 -1 0 246)">
				<stop  offset="0" style="stop-color:#000000"/>
				<stop  offset="1" style="stop-color:#000000"/>
			</linearGradient>
			<path class="st4" d="M347.6,215l-220.1,22.1c0,0,174.5-6.2,224.3-4.2c48.9,1.9,200.4,10.2,205.9,10.5L347.6,215z"/>
		</g>
		<g>
			<defs>
				<polygon id="SVGID_3_" points="1,1 2,1 1,2 				"/>
			</defs>
			<defs>
				<polygon id="SVGID_4_" points="-1,-1 -2,-1 -1,-2 				"/>
			</defs>
			<clipPath id="SVGID_5_">
				<use xlink:href="#SVGID_3_"  style="overflow:visible;"/>
			</clipPath>
			<clipPath id="SVGID_6_" class="st5">
				<use xlink:href="#SVGID_4_"  style="overflow:visible;"/>
			</clipPath>
			<g class="st6">
				
					<linearGradient id="SVGID_7_" gradientUnits="userSpaceOnUse" x1="557.88" y1="2.595" x2="557.97" y2="2.595" gradientTransform="matrix(1 0 0 -1 0 246)">
					<stop  offset="0" style="stop-color:#000000"/>
					<stop  offset="1" style="stop-color:#000000"/>
				</linearGradient>
				<polygon class="st7" points="557.9,243.4 557.9,243.4 558,243.4 				"/>
			</g>
		</g>
		<g>
			
				<linearGradient id="SVGID_8_" gradientUnits="userSpaceOnUse" x1="565.08" y1="17.845" x2="1002.85" y2="17.845" gradientTransform="matrix(1 0 0 -1 0 246)">
				<stop  offset="0" style="stop-color:#000000"/>
				<stop  offset="1" style="stop-color:#000000"/>
			</linearGradient>
			<path class="st8" d="M790.1,213.4l-225,29.5c30.9-2.2,155-10.8,230.2-14.7c86.5-4.5,207.5,10.6,207.5,10.6s-1-0.5-2.9-1.5
				L790.1,213.4z"/>
		</g>
		<g class="st9">
			<path class="st10" d="M190,43.4c-0.1,1,1.6,1.5,5.4,1.4c3.6-1.5,8.9-1.9,13.7-2.6c0.1-1.9-6.1-2-6.8-3.6
				c-5.7,0.2-11.4,0.9-17,2.2c-2.8,0.6-5.5,1.4-8.1,2.4c2.1,0.7,4.4,0.7,6.5,0C184.1,43.8,188.3,43.6,190,43.4z"/>
			<path class="st10" d="M467.1,43.6c-0.2-2.2-10,0-15.1-1c-0.6,0.5-2,0.7-2.1,1.5C451,46.7,467.3,45.8,467.1,43.6z"/>
			<path class="st10" d="M475,50c1.7,1.3,2.2,2.2,4.6,3.5c-3.2,0.2-5.5,0.7-5.9,2.3c1,0.6,3.4,0.6,4.3,1.2c-1.4,1-5.1,0.8-5,2.5
				c7.6-0.1,18.9-0.3,22.6-2.9c-1.1-0.8-1-1.7,0-2.9c-1.6-0.4-3.4-0.7-5.2-1c0.3-1.9-1.8-2.8-3.8-3.8c1.7-0.4,0.4-1,1.2-1.7
				c-1.9,0.1-2.1-0.4-2.5-1h-5.3c-0.7,1-2.9,1.5-1.9,2.8C477.1,49.2,476,49.5,475,50z"/>
			<path class="st10" d="M459.8,55.7c1.4,1.6,8,0.6,8.7-0.7c1.3,0.1,2.5-0.1,3.7-0.6c0.1-1-0.2-1.9-0.8-2.7
				c-5.3-0.9-7.9,1.1-10.8,2.1c0.6,0.2,0.4,0.7,1.2,0.8C461,54.9,459.8,55,459.8,55.7z"/>
			<path class="st10" d="M302.5,97.5c1.7,1.7,9.3,0.6,13.1,0c1.2-0.8,2.2-1.8,3-3c-5.1-0.1-8.1-0.9-13.5-0.9
				c-5.6-1.8-13.1-6.8-24.6-3.4c-0.4,2,6.6,1.2,11.2,1.4c-0.7,1.3,3.1,1,3.4,2.1c-2-0.1-2.6,0.7-2.9,1.6c3.3,0.6,8.7,0.1,11.8-0.5
				c0.7,0.3,1.7,0.5,1.4,1.2C304.6,96.5,302.4,96.3,302.5,97.5z"/>
			<path class="st10" d="M752.1,93.8c4-0.2,3.3-3.2,0.7-4.6C746.4,88.8,748.2,93,752.1,93.8z"/>
			<path class="st10" d="M288.2,96.8c0.3,1.1,2.8,1.3,5.2,1.6c1.4-0.3,2.5-1.3,2.9-2.6C293.5,96.1,289.5,95.6,288.2,96.8z"/>
			<path class="st10" d="M775.2,107.6c-3.6-0.5-3,0.8-4.7,1.2c-0.5-0.2-0.8-0.6-0.9-1.2c5.5,0.3,2-3.7-2.5-3c-1,0.1-0.3,0.9-1,1.2
				c-1-0.2-1.9-0.5-2.8-1.2c3,0.1,3.4-0.9,3.5-2.1c-1.2-0.2-2.4-0.5-3.6-0.9c-0.9-1.4-1.1-1.9-0.6-2.9c-2.3-0.6-3.8-1.7-6.7-2
				c-0.2,0.5-0.1,0.8,0.2,1.8c-0.9,0.3-2.5,0.2-3,0.7c1.7,2.1,6,3.2,5.3,5.9c4.7,1.8,10.5,4,7.7,7.2c3,0.4,6.5,0.4,7.4,2.1h2.9
				C776.1,112.3,776.4,109.5,775.2,107.6z"/>
			<path class="st10" d="M777.6,120.5c-0.3-1.1-1.6-1.6-2.7-2.2c-4.9,0.7-9.9,0.8-14.8,0.3c1.9-1.7,2.8-3.4,2.4-5.5
				c-2-0.7-4-1.5-6-2.3c-6.9,1.2-6.2,5.7-11.9,7.4c-2.5,0.1-5,0.2-6,1c0.4,1.7,0.7,3.4,3.5,3.7c0.7,1.5-0.1,2.4,0.7,4
				c2.3,0.6,4.5,1.3,6.9,1.7c1.7,0.1,1.2-0.8,2.1-1c1.1,0.5,1.8,1.3,3.8,1.2c2.5-0.8,3.8-2.2,2.9-4.5c2.5-0.6,3-1.9,3.2-3.4
				c0.9,0.2,2.4,0.1,3.1,0.5c-1.1,0.8-1.5,2-4.1,2.2c0.2,0.7,0.5,1.5,0.8,2.2c1.2,0.5,2.3,1,3.4,1.5c-1.8,0.8,0.5,3.6,1.2,4.8
				c5.4,0.4,2.4-3,3.9-4.3c0.8,0.2,1,0.8,1.4,1.2h5.4c0.6-1.6-3.7-2.2-3.2-4.7c1.1-0.2,3-0.1,2.5-1c-0.3-1.7-3.9-1.4-5.6-2.2
				C773,121.2,775.3,121,777.6,120.5z"/>
			<path class="st10" d="M803,122.6c0.2,0.7,1.1,1.7-0.2,1.7c-2.3-0.5-3.1-1.9-4.6-2.9c-5-0.5-4.2,1.3-8.2,1.2
				c3.7,1.2,4.6,4.3,8.1,5.7c6.1-1,8.8,1.5,12.1,3.2c-1,0.3-3.3,0.1-4.2,0.5c1.1,2.1,5.6,1,8.9,1.2c2.4,0.2,5.8,1.4,8.2,0.7
				c1.4-0.1,0.1-1.2,2-1c6.6,0.7,11.4,4.6,18.5,3c1.3-3.4-6.9-2.4-8.3-5.1c2.6-0.6,6.1,0.3,9.7,0c-0.2-1.3,0.7-2.2,0.7-3.5
				c-2.4-0.7-1.7-3.5-5-3.4c-3.1,0.1-0.7,2.5-1.1,3.7c-8.3,4.4-15.8-3.3-26.2-3.4C811.4,122.6,806.6,121.5,803,122.6z"/>
			<path class="st10" d="M754.6,133c3.2-0.2,5.1,0.6,8.7,0.7c0.7-0.8,0.6-2-0.2-2.6c-0.1-0.1-0.2-0.1-0.2-0.2
				c-5.5-0.9-11.2-0.4-15.9-0.4c-3.6,0-8.3-1.5-7,1.6c4-0.2,6.1,1.9,9.5,2C751.4,134.1,752.4,133.1,754.6,133z"/>
			<path class="st10" d="M843.5,151.6c-1.8-1.4-3-3.4-4.8-4.8c-1.6-0.2-3.6-0.1-4.4-0.8c1.3-1.6-0.2-3-2.2-4.7
				c-1.5-0.3-3.4-0.4-4.8-0.8c0-1,1.8-1.2,2-2.1c-1.2-0.9-2-2-3.2-2.8c-4,0.4-8.3,3.3-4.1,5.2c-2.6,0.4-0.2,2.9-2.5,3.4
				c-1.1-1.6-4.6-1.6-6.6-2.6c2.9-0.6,2.6-3.4,0.4-4.9c-2.8-0.3-2.8,0.5-4.1,0.8c-3.4-0.4-5.4-1.6-9.5-1.5c0.5,1.8-0.9,1.4-2.5,2.3
				c-2,1.2-2.1,2.7-6.5,2.4c-4.4-2.1-9.8,0.2-9.7,2.1c-0.1-0.7-1-0.9-2.3-0.8c-1.4,0.9-3,1.6-2.3,3.5c-4.5,3.1-11,5.3-17.9,7.4
				c-1-0.2-1-1.1-2.8-0.8c-0.6,0.9-0.7,2-1.7,2.8c0,0.6,1.6,0.3,1.8,0.8c-0.8,0.9-3.6,0.9-4,2c0.1,0.4,0.2,0.7,0.3,1.1
				c0.5,0.5,2.5,0,2.8,0.6c0.7,1.6-1.4,3.6,1.8,4.2c-0.8,3.4-3.2,7.1-1.4,11.1c5.6,1.4,13.2,0.1,15.5-1.6c5.9,2,11.3-2.2,13.9-4.2
				c6.4-0.4,10.3-0.8,15.9,0.5c1.3,2,3.6,3.4,4.8,5.5c4.2,0.4,3.4-1.4,3.7-2.7c0.6,2.5,4.4,3.6,3.5,6.2c9.6,3.3,20.8,1.7,29-0.5
				c-1.2-1.8-0.5-2.8-1.4-4.4c7.4-0.5,3.7-5.8,11.9-5.9c0.7-2.7,0-6,1.5-8.8C849.9,156.4,850.3,151.3,843.5,151.6z"/>
			<path class="st10" d="M601.1,137.3c-1.4-0.1-2.7-0.1-4.1,0c-0.4,4.6-8.5,5.3-13.8,7.5c1.7,0.9-0.2,1.9-1,3.5
				c2.3,0.1,3.8,0.6,4.8,1.4c-1.2,2.2-3.5,3.9-6.3,5.3c0.6,2.2,1.1,4.5,5.4,4.8c2.1-0.6,3.6-1.5,6.4-1.7c4.1-2.8,4-7.7,6.5-11.1
				c4-0.3,5.4-4,2.4-5.4C603,140.6,602.2,138.2,601.1,137.3z"/>
			<path class="st10" d="M903,174c-1.8-0.5-3.6-0.7-5.5-0.5c-2.3-1-3.9-2.6-5.8-4c-3.8-0.3-4.3,0.8-3.3,2.6c2.4,0.7,4.7,1.4,6.2,2.9
				c-6.7,0-0.5,5.6-5.6,6.3c-2.5-0.1-3.1-1.7-6-1.4c-1.1,2.7-6.6,3.5-8.1,6.1c-4.7,0.8-9.4,1.6-11,3.8c4.6,0.6,3.6,2.7,4.9,4.6
				c4.6,0.6,3.3-1.5,4.9-2.2c6-0.6,5.1-4.2,11.1-4.7c-0.5-2.7,3.8-2.7,7.3-3.4c5.6-1.2,8.8-4.4,13.2-5.8
				C904,176.5,904,174.9,903,174z"/>
			<path class="st10" d="M820.8,181.8c1.6,2.1-1.8,2-1.2,3.7c1.4,1.1,2.9,2,3.6,3.6c3.8-1.5,8.7-2.5,6.3-6.8
				C826.7,182,823.7,181.8,820.8,181.8z"/>
			<path class="st10" d="M725.7,119.9c1.6,0.4,3.3,0.5,4.9,0.2c-3.6-3.3-3.4-8.7-11.3-9.3c-1.7-1.1-1.4-2-4.1-2.8
				c1.6-0.3-0.1-2.3,0.3-2.6c4.2,0.7,5.7,2.8,9.6,3.7c0.2,0.6,0.3,1.1,0.5,1.6c1.6,0.2,3.2,0.3,4.8,0.2c0.2-1.2,2.7-1.4,2.5-2.8
				c1.7-0.3,3.4-0.5,5.1-0.5c-0.6-0.8,0.4-0.9,0-1.6c-1-0.7-2.1-1.1-3.2-1.4c1.5,0.1,2-0.2,1.6-0.9c-1.4-1.2-3.1-1.9-4.9-2.3
				c-1.2-2.1-4.2-3.3-6.5-4.7c0.5-0.8,1.1-1.6,3.2-1.8c1.7,0.1,1.3,1.3,3.6,1.1c1.2-0.4,0.3-0.6,0.1-1.3c0.7-1,3.3-1.1,3.5-2.2
				c4.7-1.3,13.8-1.5,11.1-5.2c1.3-1.3,3.8-2.6,2.5-4.5c-1-0.5-3.1-0.4-4-1.1c0.2-1.6-3.2-1.2-2.8-2.9c-2-1.2-6.2-1.3-8.4-2.5
				c4.2,0.1,4.6-3.6-0.7-3.5c-0.9,0.3-0.5,1.2-1.8,1.4c-1.1-0.5-2.8-0.7-3.9-1.2c2.5,0.2,2.4-0.7,3.2-1.2c1.6,1.6,9.3-0.1,8.8,2.7
				h3.1c2.4,1.9,6.1,3,9.5,4.3c3.6-0.2,0.7-2.5,0.4-3.9c-9.7-0.7-10.6-7.1,0.3-6.4c1.5-1.8,1.9-4.1,0.4-6.1c2,0.7,3.9,1.7,5.5,3.1
				c2.7,0.2,3-0.5,3.5-1.2c-1.3-1-1.6-1.2-1.8-2.5c-5.4-1.1-7.3-4.1-13.3-4.8c-1.2,0-0.1,0.9-0.9,1.1c-2.3-3-11.4-0.8-15-1.4
				c2-0.2,3-0.7,3.3-1.5c-5.8-5,17.2-0.8,20.1-3.1c0.2-0.8-2.2-0.3-2.8-0.8c1.2-0.3,2.5-0.5,3.5-0.9c1.3,0.5,2.6,0.7,4,0.6
				c1.3,0,0.6-0.8,1.2-1.1c1,1.2,0.9,2.1-1.6,2.4c-1.5,3.3,4.5,4,9,5.7c2.9,1.1,5.6,3,8.6,3.3c2.8-0.4,1.2-2.3-0.8-3.1
				c4.5-1.7-2.9-3-3.5-5.3c-1.4-0.1-3.5,0.2-3.9-0.4c2.2-0.8,4.5-1,6.8-0.7c1.1-1.5,2.7-2.6,4.5-3.1l-0.2-0.5
				c-2.1-0.4-5.4-0.1-7.3-0.6c1.3-0.3,2.7-0.4,4-0.3c-2.6-2.6-9.5-3-13.9-4.6c-1.3-0.1-1.1,0.3-2.4,0.2c-1-0.1-1.2-0.7-2.7-0.5
				c-3.5,1-8.8-0.7-12.1-0.4c-0.1,0.4,0.9,1.2,0,1.2c0-0.5-1-0.5-1.8-0.5c-9.4,0.5-17.2-1.4-27.7-1c-2-1.7-8.3-0.5-12.7-1
				c-1.6-0.2-1.5-0.5-2.6-0.5c-3.5,0-7.1,0.5-10.5,1.4c-5.1,0-9.6-0.9-15.2-0.8c-0.8-0.6-1.8-1-2.8-1.3c-1.5-0.1-3.1,0.2-4.4,0.9
				c-6.3,0-15.1,0-19.2,0.4c-0.8-1,1.7-0.8,1.4-1.6c-0.1-0.4-0.8-0.5-0.6-1.1c-3.5-1.2-7.4-1-10.8,0.7c-0.4-0.3-1.2-0.5-1-1.1
				c-5.1-0.9-11.6,0-13.2,1.5c-0.8-0.4-1.7-0.6-2.6-0.5c-3.9,0.7-10,0.5-12.5,1.7c-2.7-0.8-6.6,0.9-9.3-0.2c-2,1.2-7.5-0.3-9.7,1.2
				c-1.5,0.4,2.1,0.8,0.5,1.3c-2,0.1-2.5-0.4-4.3-0.4c-1.1,0.2-0.4,1.2-1.7,1.3c-2.3-1.5-7.6-0.5-8.6,0.7c0.2-0.6-0.3-0.9-0.4-1.3
				c-3.8,0.6-7.2,0.3-9.9,1.4c-1.8-0.7-5.8-2.2-8.6-1.3c0.8,0.8,2.6,1.1,3.4,1.8c-1.4,0.7-2.9,1-4.4,1.1c-0.2-0.7,2.6-0.1,2.2-0.9
				c0-0.3,0-0.6,0-0.9c-6.6-1-13.8-1.7-20.1-2.8c-4.4,0.1-10.1-0.3-11.8,1c-2.7-0.4-5.5-0.3-8.2,0.1c0,0.4-0.1,0.7-0.1,1.1
				c-5.6,0.7-7.8,3-11.1,4.8c0.1-0.7-1.7-0.6-3.4-0.6c-5.5,1.2-2.9,5-1.5,6.8c3.9-0.3,3.9,1,6,1.4c-7.1,0.7-14,2.3-20.6,5
				c-2.7,0.1-7.1-0.9-7.8,0.6c-0.4,1.2,3.5,0.8,2.3,2.4c1.7,0.4,3.5,0.8,5.3,1c-1.1,0.4-2.1,1-1.2,1.8c-2.2,0.1-3.7,0.6-5.7,0.8
				c-0.4-1.4-7-1.2-9.5-0.6c-1.1,1-0.2,2.4,0.7,3.3c-2,1.1-4.1,2.3-6.3,3.3c-0.5,2.8,7.8,1.9,10.5,3.4c2.1,0.1,1.5-1.1,3.5-1.1
				c2.5-0.3,2.3,0.6,4.6,0.4c2.3-0.9,3.9-2.9,4-4.2c3.1-0.7,6-2.1,8.5-4.1c2.4,1.9,7.5-0.8,9.6,0.2c0.2,0.6-0.9,0.6-0.6,1.2
				c4.1,1.1,8.3,2,12.5,2.7c0.8,0.5,0.1,1.5,0.2,2.3c1.5,0.2,3.1,0.2,4.7-0.2c-1.4-1,0-2-0.1-3.5c-2-0.5-2.1-1.7-5.8-1.4
				c0.8-1.7-3-1.5-3.8-2.5c0.5,0,0.5-0.3,0.5-0.6c3.4,1.2,6.4,2.6,9.6,3.9c-0.5,1.2,1.6,1.4,2.1,2.3c5.2,0,6.2,1.9,6.6,4
				c1.8,0.4,3.8,1.2,6.4,0.6c-0.5-1.6,1.3-2.2,1.2-3.6c-0.6-0.7-2.6-0.7-3.1-1.5c0.9-0.4,1.5-0.9,2.4-1.2c-0.3,0.8,2,0.4,2.7,0.8
				c0,2.2,2,3.4,3.8,4.8c7.6,1.1,10.5,0.4,16.2-0.2c-0.2,1.9-1.8,3.2,0.3,4.7c-0.4,0.5-2.6,0.2-2.4,1.1c0.4,5,10,7.8,13.4,12.3
				c6.7,1.5,7.9,5.6,10.1,9.4c-2.5-1.1-5.1-1.9-7.8-2.3c0.4-0.8,0.6-1.7,0.5-2.5c-0.4,0-0.6-0.2-0.5-0.5c-1.1-0.7-3.4-0.8-4.8-1.4
				c-1.5-6.9-10.3-10.2-13.8-15.9c-3.6-0.4-3.6,0.8-5.7,1.1c-7.9-0.1-12.5-3.4-20.9-2c-0.8,0.5,0,1.8-1.6,1.9
				c-3.2,0.2-2.6-1.2-5-1.3c-1.8-0.2-0.9,0.9-2.9,0.6c-0.8-0.3,0-1.2-0.8-1.5c-2.4-0.8-5.8-0.6-9.3-0.4c0.4-0.8-1.6-0.5-1.2-1.3
				c1.6-0.5,2.9-2.1,1.8-3.2c-7.6-0.6-13.9,1.2-22.4,0.4c-3.5,2-9.1,1.6-15.4,2.1c-1.5,0.6,0.8,0.7,0.2,1.5c-2.4,0-4.8,0.3-7.2,0.6
				c-0.7,2.2-0.6,4.2-5.3,4.8c-4.6,3.9-14.4,5.1-17.4,10c4.1,2.1-1,6.9-2.9,9.3c3.2,1.7,4,4.5,8,6c-0.9,0.6-1.5,1.6-1.6,2.7
				c0.5,0.4,1.3,0.6,1.2,1.2c1.4,0.1,2.5,0.4,3.9,0.5c2.7,4.8,14,0.8,23.4,1.9c2-0.6,3.1-1.8,5.9-2c1.2,0.2,0.6,1.1,2.9,0.7
				c2.3,0,1.8-1.5,4.3-1.5c0.7,1,2.1,1.8,3.6,2.4c4.6-0.2,7.8,0.3,9.9,1.2c-2.2,0.8-0.6,2.1,0.1,3c-1,0.1-1.8,0.7-2.2,1.5
				c-0.6,5.7,2.7,9.6,9.2,12c0.5,1,1,2,1.7,2.9c-1.8,3.5-5.5,5.9-8,9.2c5.2,4.2,5,9.8,5.1,15.4c0.1,3,3.6,4.6,5.2,7.2
				c1.3,2.2,1.5,4.2,3.3,5.9c8,1.7,17.7,1,25-0.8c5.9-3.1,9.9-7.1,16.8-9.5c-0.8-1.7,2.8-2.9,0.1-3.7c6.6-2.5,6.9-7.2,8.3-11.8
				c9.3-1.6,14.3-4.8,14.1-10.6c-0.5-1-2.3-1.5-1-2.6c-9.1-2.5,0-8.9,5.5-10.3c3.3-3.8,10.3-5.8,13.7-9.4c1.5,0.1,1.9-0.3,2.9-0.5
				c-1.8-4,6.8-6.7,1.5-10c-5.6,0.3-17.2,4.3-17.9,0c1.7,0.6,3.6-0.2,5.8,0c0.5-1.8,6-1.3,9.1-1.9c0.2-1,1.4-1.6,4.3-1.4
				c0.2-0.9,1.2-1.4,2.3-1.8c6,0.5,6.3-1.6,10.8-1.8c-0.5-2.6,2.1-2.9,3.4-4.9c-0.3-1.2-2.8-0.6-5.3-1.3c-4.6-1.4-7.8-5.3-12.3-1.6
				c-0.8-0.1-2.8,0.3-2.8-0.2c0.4-0.5,0.5-1.1,0.4-1.8c-2-1-5.9-1.1-8-2c-0.1-1-1.2-2.3,0.8-2.6c-0.1,2.9,7.1,2.4,9,4.3
				c1.7,0.6,5.5,0.2,5.6-0.7c3,0.5,3.9,2,6.7,2.6c5.1,0,9.5-0.8,17.2-0.6c1,1.7,3.8,2.4,7.8,2.6c-0.4,0.6-2.9,0.3-2.2,1.3
				c0.8,1.8,6.3,1.2,9.2,2c1,4.8,6.7,7.9,12.5,11c0.2,1.2,1.1,1.9,1,3.3c2.2,0.4,3.5,1.4,6.5,1.4c3.1-2.2,2.8-6,3.2-9.3
				c4.7-1.7,9-4.4,12.6-7.9c2.6,0.2,3-0.4,5-0.4c3.2,2.2,8.5,3.4,9.5,7c1.8,0.3,1.8,1.6,4.2,1.6c2.7,0.3,1.3-1.2,3.5-1.2
				c0.3,2.5,5.6,3.4,6.5,6.9c-1.8,0.6-1.5,1-0.8,2.6c4.1,1,5.7,3.5,9.4,4.7c-1.8,2.4,4.6,2.3,5,4.3c-5.2-1.4-9-3.6-13.9-5
				c-1.1-1.4-2.8-2.4-6.4-2.4c0.3,5.7,12.9,6.9,15.7,12.3c4.7,1.7,7.8,4.5,11.3,7c1.8-0.1,4.4,0.2,5.4-0.3c-0.6-2.9,1.8-5.3-1.8-7.8
				C731.4,122.9,728.3,121.8,725.7,119.9z"/>
			<path class="st10" d="M456,42.3c1.5-0.2,4.9-0.6,4.4-1.6c-1.5-0.3-4.5-0.1-5.1-0.8c0.8,0,0.5-0.6,1.5-0.5c2.4,1,5.1,1.2,7.7,0.6
				c0.5-0.8-0.1-1.2-1-1.5c3,0,4.4-0.8,7.1-0.9c1-1.2-1.9-0.9-1.3-2c3.3-0.7,6.8-1.2,8.3-2.6c1.2,0.1,2.3,0,3.5-0.2
				c-1.8-2.5-9.8,0.8-12.8-0.4c0-1.1,3.4-0.6,3.4-1.7c-2.1-1.1-6.1,0.2-9.5,0.3c-1.1,0-2.2-0.3-3.3-0.4c-8.2-0.3-16.9,1-24.9,1.3
				c-0.9,0.3-1.3,0.9-2.1,1.2c-1.9-0.7-7.4-1.4-10.3-0.4c-3.3-0.6-6.4-1.5-11-0.8c0.6-0.9-1.6-0.8-1.2-1.6
				c-13.3,0-29.7-0.2-40.5,2.2c-2.9-0.8-10.2,0-9.9,1.4c5.1,0.9,11.1-0.8,15.5-0.3c-3.9,2.1-13.8,0.8-18.7,1.3c0.5,1.8,6,2,8.7,3.2
				c-2.8,0.1-2.8-0.8-6-0.6c-2.4,1.5-4.5,4.2-9.3,3.6c0.4-0.9,1.8-1.6,1.2-2.4c3.8-0.3,5.8-2.5,2.9-3.3h-1.8
				c-0.5,0.6-0.1,0.8-0.2,1.3c-3.1-0.1-3.9,1-5.3,1.8c1.2-1-1.2-0.8-1-1.5c2.6-1,4.3-2.5,7-3.4c0.4-1-3.7-0.8-5.1-0.4
				c-1.4,2.2-9.3,2.8-7.2,5.4c1.3,0.1,3.6-0.2,3.4,0.4c-0.5,0.7-1.9,1-3,1.5c-0.2-0.5-0.3-1-0.6-1.5c-1.9-0.2-3.8,0-5.6,0.5
				c-1,1.3,1.3,2.6-3.1,2.6c2-2.1,3.5-4.7,4.4-7.5c-2.7-0.4-7.4-0.3-7.8,1.2c0,0.7,3.5,0.3,3.4,1.1c-3.2-0.2-6.5,0-9.7,0.5
				c0.5-0.7,3.3-0.3,3.7-1.1c0.4-1.1-1.9-1.1-0.6-2.2c-5.8-0.4-11.5,1.3-11.6,2.5c-5.2,0.4-11.5,0.3-12.9,2.9
				c3.3,0.1,6.6,0.4,9.9,0.8c-1,0.2-2,0.5-2.1,1.3c2.2,0.4,6,0.2,8.3,0.6c-2.8,0.2-6.8-0.1-9.8,0.5c-2.6-1.8-10.5-2.6-14.7-4.2
				c-2.5-0.9-9.5,1-15.2,1.2c-15.4,0.6-24.8-3.4-37.9-1.1h-3.6c-1.3,0.4-2.8,0.6-4.3,0.9c-3.1,0.1-5.2-0.2-7.3,0c-1.1,1-2.2,2-1.8,3
				c-0.8-1.5-13.2-0.8-13.8,1.1c0.4,0.6,3.8,0.2,4,0.8c-3.7,1.4-11.2,0.5-15,1.8c-2.3,1.9,0.5,1.9-2.2,3.3c1.3,0.3,3.8,0.3,5.2,0.6
				c-2.4,1.1-5.6,1.6-8.2,2.5c-3.5,0-10.2,0.5-15.2,0.5c-1.6,1,0.1,1.4,1.5,1.6c6.7,1,21.9-1.8,25.4-3.3c6.6-0.4,10.4-2.5,17.1-2.1
				c5-1.1,17-1.4,17.9,0.5c8,0.6,2.3,4.8,0,7.9c2.8,0.3,3.2,1.5,5.2,2c-1.5,0.9-4.5,0.9-7,1.2c-0.4,2.4-6.7,2.8-10.2,4.3
				c-4.5,2-9,6.2-6.4,7.6c-3.6,2.1-3.6,4.2,0.7,4.5c-5.4,2.4-0.6,3.9-3,6.4c-2.2-0.3-1.9,0.9-2.6,1.6c6,0.8,4.9,4.1,8.6,5.7
				c7-3.7-3.4-5.1,0.4-8.6c6.1,1.1,1.7,5.8,6.4,7.4c-0.6,1-0.2,1.6-1.3,2.8c-1,0.6-2.4,0.8-2.8,1.8c3.5,2.3,6.2,4.7,12.1,5.6
				c1.9,0.3,3.9,0.5,5.9,0.5c0.4,0,1.9-0.8,2.5-0.7c2.2,0.3,2.4,2.5,5.9,2.8c3.2,0.3,5.4-0.3,9.3,0c2.8,1,3.6,2.8,1.9,5.6
				c3.2,1.7,11.5,2.2,17.7,0.7c0,2.8-2.9,5-3.7,7.7c-7.9,2.5-13.4,6.8-16.6,12.6c0.3,5.2,9.3,7.1,7.9,13.2
				c2.3,2.6,10.7,1.6,12.5,4.4c1.3,2-1,5.4-1.6,8.5c-0.7,3.8,0.7,6.8-3.7,10.6c0.3,0.9,0.2,1.9-0.2,2.7c-0.8,1.1-2.6,1.4-3.5,2.4
				c0.6,1.3,1.3,2.5,0.7,4.3c-2,0.7-3.8,1.5-4.5,3.1c1.2,2.5-0.5,6.3,4.6,7.2c-1.3,1.8-0.3,2.6-1.6,4.5c-1.9,1.6-6,1.5-7.2,3.6
				c0.9,1,5.2,0.5,5,1.9c-4.1,5.5,7.1,5.1,2.2,10.3c1.1,0.8,2.8-0.3,4.9-0.1c-0.3,3,17.4,3.8,20.5,0.1c-1.7-1.9-9.4-1.1-11.4-2.9
				c3.5-1.6,3.1-3.6,1.7-5c1.5-1.8,5.5-1.9,6.2-4.3c0-1.1-3.5-0.7-4-1.6c6-4,6.8-7.1,11-11.2c3.9,0.8,6.2-1.6,11-1.3
				c0.8-2.1,4.5-2.2,5.8-4c-1.1-0.9-2.3-1.8-3.5-2.4c10.9,2.3,15.1-2.2,15.5-7c1.8,0,3.6-0.2,5.3-0.6c2.8-3,5.1-6.3,8.6-8.8
				c5.9-0.3,10.2-1.6,15.3-2.4c0.4-1,0.7-1.9,1.1-2.8c6.3-2.4,8.9-7,11.8-11.4c0.3-0.8-0.8-1.1-1-1.6c5-0.5,6.1-3.2,10.5-4.1
				c-0.7-2.6,2.5-3.7,3-7.1c-9.9-0.2-10.2-6.3-20.7-4.8c-0.9-2.2-9.9-0.4-12.5-1.5c0.4-0.8,2.5-1.3,1.4-2c-5.5-0.5-5.5,2.4-9.5,2.8
				c1-2.5,4.9-3.2,6.4-5.3c0-0.8-2.1-0.7-2.6-1.2c1-0.5,1.7-1.4,2.1-2.5c-3.4-1.9-12.1-0.4-16.2-1.7c-2.6-0.8-2.1-2.6-3.3-3.9
				c-2.1-0.6-4.1-1.3-6.1-2.2h-3.6c-0.3,0.6-0.4,1.4-1.7,1.4c-4.5-1.2-9.2-2.4-12.1-4.3c-2.5,0.3-2.5,2-4.4,2.6
				c-0.9-0.4,1.1-2,0.2-2.4c-3.5-0.3-3.3,1.8-7.3,1.2c-4.5,3.9-9.6,3.5-16.4,3.6c-0.7-1.1-2.7-1.7-4.3-2.4c1.9-1.6,2.6-4.5,6.3-5.7
				c-0.4-2-9.6-0.7-13.4-1.4c6.1-0.9,10.4-5.2,9.5-7.6c-3.5,0.4-7.7-0.4-11.3,0.4c-1.5,1.3-1.2,1.8-2,3.2c-1.5,0.6-3,1.1-4.5,1.6
				c-0.8-0.4-1.8-0.6-2.8-0.5c-1.2,0.3-1.2,1.4-2.9,1.4c-2.1-0.6-1.4-2.2-0.1-4c0-0.6-2.6-0.3-1.8-1.2c1.4-0.8,2.8-1.5,4.3-2
				c-0.6-0.3-2.1-0.2-1.4-0.9c1.8-1.4,3.6-2.8,5.5-4c4-1.2,8.7-2.9,14.6-2c1.9,1.1,4.2,1.4,6.4,0.9c1-0.7-1-1.1,0.3-1.3
				c4-0.6,8-0.4,11.9,0.7c-1.7,2.7-1.9,4.8,1.8,5.6c4.7-0.8,6.7-5.6,4.8-6.9c4.8-4,22.5-1.8,22.4-7.5c2.4-1.5,5.1-2.4,8-2.5
				c0.3-0.6,0.6-1.1,0.8-1.7c3.1-1.2,7.1-0.4,11.3-0.8c-0.3-2.7,5.1-4.5,9.2-4.5c-1,0.4-1.9,0.9-2.6,1.6c4.6,0.3,9.3,0.1,13.9-0.6
				c0.9-0.3,0.8-1.3,2-1.4c1.3,0.1,2.6,0,3.8-0.2c1.4-1.6-2.7-1.2-5.5-1.2c1-0.4,1.3-0.6,1-1.2c-3-0.2-4.9,0.2-6,1
				c-0.4-0.3-0.1-0.7-0.5-1c1.5-0.3,3-0.6,4.5-0.8c1.1-0.7-1.1-1,0.1-1.2c0.1,0.5,1.2,0.7,3,0.6c1.5-0.9,5.8-0.4,6.7-1.6
				c2.2,0.2,5.4,0,6.2,0.6c-0.9,2.1-7.1,1.4-8,3.6c1.9,1,5.7,1.3,8.5,2.1c2.3-0.9,2.4-0.1,5.7-0.2c1-0.6,2.1-1.2,3-1.8
				c0-1.7-3.5-2.2-2.5-4.2c-0.5-0.5-2.2-0.5-3.4-0.8c4.8-3.1-6.5-4.1-2.7-6.9c-2.6-0.7-3-2.2-6.1-2.7c-1.9,0.3-2.2,1.5-3.3,2.3
				c-0.6-0.2-1.8-0.2-2-0.6c2.3-2.6-4.8-4.7-11.5-3.7c0.2-0.5,1-0.6,1-1.1c-0.7-0.5-4.2-1-3.3-1.5c1.7,0.3,3.5,0.4,5.3,0.2
				c0.3-1.2,2.6-1.4,2.6-2.8c3.9-0.5,5.9,1,9.8,0c-0.6,0.8-0.2,1.2-0.4,1.9c-2.4,1-6.4,1.3-9.1,2.2c-0.3,0.4,0.3,0.4,0.1,0.8
				c6.7,0.5,7.5,2,14.9,2.2c0.8-0.5,0.3-0.9,1.9-1.3c-0.4,0.8,2.7,0.2,3.1,0c0.7-1.4-1-2-2-2.8c1.7,0.2,1.2,1.3,3.5,1.3
				c2.4,0.2,2.1-0.9,3.6-1.1c1.8,0.8,6.1,0.1,6.3-1.3c-1.5-0.9-5.6-0.9-7.3-1.7c0.6-0.5,0.6-0.6,0.5-1.1c-4.1-0.7-9.7-1.9-13.9-0.8
				c-0.6-0.2-1.3-0.3-1-0.7c3.5-0.5,6.4-2.4,10.4-2.7c3.3-0.3,7.3,0.8,11.5-0.1c0,0,0.1-0.1,0.1-0.1c0,0.2,0,0.5,0.2,0.7h-2.6
				c-0.1,0.4-0.3,0.7-0.4,1.1c5.9,0.9,14.4-1,16.8,1c-0.8,0.4-2,0.6-1.9,1.5c0.6,0.6,3.2,0.5,3.1,1.3c-1.2,0.6-2.5,1-3.9,0.9
				c-1.3,1.3-2.6,2.5-4,3.7c1.9,1.8,3.7,3.7,7.7,4.8c9.4,0.7,12-2,15-4.5c2.4-0.8,6.9-0.5,10.8-0.5c0.8-0.4,1.4-0.9,1.4-1.7
				C440,42.6,449.7,43,456,42.3z M402.2,33.8c-3.3,0.5-9.1,0-9.8,1.5c-0.2-1-5.4-0.2-5.7-1.1c3-0.8,5.9-0.9,10.3-0.7
				c1.8-0.3,2.4-1.2,4.5-1.4C401.2,32.9,403,32.9,402.2,33.8z"/>
			<path class="st10" d="M777.9,77.2c-0.7-2-5.3-2.6-3.6-4.5c-1.8-0.4-2.3-1.5-3.5-2.2c-1.7,0-3.8,0.1-3.8-0.8
				c2.6,0.1,3.8-0.3,6.5-0.2c0-0.2-0.3-0.6,0.2-0.6c-0.8-2.2-8.9-1.2-8.6-3.2c-1.4-0.4-2.9-0.2-4.2,0.4c1.4,2.3,1.1,2.9,3.2,5
				c1.1,0.2,2.3,0.5,3.4,0.8c-0.9,0.3,1.2,1.1,1.2,1.8c-1,0.5-1,1.3-3.5,1.2l0.4,1c-3,1-8.2,1.1-9.1,2.9c1.9,0.9,0.8,2,1.2,3.3
				c2.6-0.4,1.2,1.3,3.3,1.7c1.3,0-0.9-1.4,0.4-1.5c1.6-0.2,0.7,1.1,2.6,0.8c1-0.4-1-2,0-2.3c6.2,0.7,3.8-1.9,1.9-3.1
				c1.8,0.1,1.8,1.2,3.6,1.2c1.6,0,2.4-0.4,1.7-1.4C773.9,79,775.3,77.5,777.9,77.2z"/>
		</g>
	</g>
</g>
</svg>
