<?xml version="1.0" encoding="utf-8"?>
<!-- Generator: Adobe Illustrator 22.0.0, SVG Export Plug-In . SVG Version: 6.00 Build 0)  -->
<svg version="1.1" id="Layer_1" xmlns="http://www.w3.org/2000/svg" xmlns:xlink="http://www.w3.org/1999/xlink" x="0px" y="0px"
	 width="9px" height="9px" viewBox="0 0 9 9" style="enable-background:new 0 0 9 9;" xml:space="preserve">
<style type="text/css">
	.st0{fill:#111111;}
</style>
<path class="st0" d="M5.9,4.5l2.8-2.8c0.4-0.4,0.4-1,0-1.4c-0.4-0.4-1-0.4-1.4,0L4.5,3.1L1.7,0.3c-0.4-0.4-1-0.4-1.4,0
	c-0.4,0.4-0.4,1,0,1.4l2.8,2.8L0.3,7.3c-0.4,0.4-0.4,1,0,1.4C0.5,8.9,0.7,9,1,9s0.5-0.1,0.7-0.3l2.8-2.8l2.8,2.8C7.5,8.9,7.7,9,8,9
	s0.5-0.1,0.7-0.3c0.4-0.4,0.4-1,0-1.4L5.9,4.5z"/>
</svg>
