<?xml version="1.0" encoding="utf-8"?>
<!-- Generator: Adobe Illustrator 23.0.3, SVG Export Plug-In . SVG Version: 6.00 Build 0)  -->
<svg version="1.1" id="Layer_1" xmlns="http://www.w3.org/2000/svg" xmlns:xlink="http://www.w3.org/1999/xlink" x="0px" y="0px"
	 width="204px" height="269.1px" viewBox="0 0 204 269.1" style="enable-background:new 0 0 204 269.1;" xml:space="preserve">
<style type="text/css">
	.st0{fill-rule:evenodd;clip-rule:evenodd;fill:#B9612F;stroke:#000000;stroke-width:3;stroke-miterlimit:10;}
	.st1{fill-rule:evenodd;clip-rule:evenodd;fill:#F2EDD7;stroke:#000000;stroke-width:4;stroke-miterlimit:10;}
	.st2{fill-rule:evenodd;clip-rule:evenodd;fill:#E06997;stroke:#000000;stroke-width:4;stroke-miterlimit:10;}
	.st3{fill-rule:evenodd;clip-rule:evenodd;fill:#EE6F9B;}
	.st4{fill-rule:evenodd;clip-rule:evenodd;fill:#E14877;}
	.st5{fill-rule:evenodd;clip-rule:evenodd;fill:#FFFFFF;stroke:#0F0F0F;stroke-width:2;stroke-miterlimit:10;}
	.st6{fill-rule:evenodd;clip-rule:evenodd;fill:#676767;}
	.st7{fill-rule:evenodd;clip-rule:evenodd;fill:#7A1327;}
	.st8{fill-rule:evenodd;clip-rule:evenodd;fill:#FFFFFF;}
	.st9{fill-rule:evenodd;clip-rule:evenodd;fill:#292A2B;}
</style>
<title>gh-monster</title>
<g>
	<g id="Layer_1-2">
		<path class="st0" d="M82.2,226.7h14.9v40.9H60.4c0,0,14.2-11.6,21.9-16.1V226.7z"/>
		<path class="st0" d="M121.8,226.7h-15v40.9h36.8c0,0-14.2-11.6-21.9-16.1L121.8,226.7z"/>
		<polygon class="st1" points="142.1,39.5 156.9,50.8 164.1,3.6 123.6,24.4 		"/>
		<polygon class="st1" points="59.4,37.9 75,27.6 32.6,5.4 39.1,50.4 		"/>
		<path class="st2" d="M3.8,128.4c-25,141.3,221.4,141.3,196.4,0C171.1-36.3,32.9-36.3,3.8,128.4z"/>
		<path class="st3" d="M6.7,126.3c-4.1,23.6-0.3,48.5,8.5,63.8c17,14.9,38.5,18.4,62,18.4c55.3,0,86.6-33.4,103.3-91.8
			c4.1-14.3,2.5-41.9-5.1-56.1C128.5-27.3,30-7.2,6.7,126.3z"/>
		<path class="st4" d="M144.2,68.4c0.2,1.3,0.3,2.7,0.3,4c0,19.2-19,34.8-42.4,34.8S59.5,91.6,59.5,72.4c0-1.3,0.1-2.7,0.3-4
			L144.2,68.4z"/>
		<path class="st5" d="M142.3,70.2c0.2,1.2,0.3,2.4,0.3,3.6c0,17.3-18.1,31.3-40.5,31.3S61.5,91,61.5,73.7c0-1.2,0.1-2.4,0.2-3.6
			H142.3z"/>
		<path class="st6" d="M132.7,70.2c0.1,0.9,0.2,1.8,0.2,2.7c0,13.2-13.9,23.8-30.9,23.8S71.1,86.1,71.1,72.9c0-0.9,0.1-1.8,0.2-2.7
			L132.7,70.2z"/>
		<path class="st7" d="M124.1,70.2c0.1,0.7,0.2,1.3,0.2,2c0,9.5-10,17.2-22.3,17.2s-22.3-7.7-22.3-17.2c0-0.7,0.1-1.3,0.2-2
			L124.1,70.2z"/>
		<path class="st8" d="M94.1,70.2c3.2,0,5.9,2.6,5.9,5.8c0,3.2-2.6,5.9-5.8,5.9c-3.2,0-5.9-2.6-5.9-5.8c0,0,0,0,0,0
			C88.3,72.8,90.9,70.2,94.1,70.2C94.1,70.1,94.1,70.1,94.1,70.2z"/>
		<path class="st4" d="M102,116.9c41.5,0,75.2,0.7,75.2,1.5s-33.7,1.5-75.2,1.5s-75.2-0.7-75.2-1.5S60.5,116.9,102,116.9z"/>
		<polygon class="st4" points="33.8,118.3 43.3,149.1 51,126.9 65.8,162.2 84.3,127.9 95.4,148.8 105.2,127.9 119,151.5 
			133.1,126.6 144.6,156.9 160,123.9 170.8,135.4 175.8,118.7 		"/>
		<path class="st4" d="M102,32.2c21.3,0,38.6,0.7,38.6,1.6s-17.3,1.6-38.6,1.6s-38.7-0.7-38.7-1.6S80.7,32.2,102,32.2z"/>
		<path class="st4" d="M102,40.3c21.3,0,38.6,0.7,38.6,1.6s-17.3,1.6-38.6,1.6s-38.7-0.7-38.7-1.6S80.7,40.3,102,40.3z"/>
		<polygon class="st5" points="37.1,115.5 46.3,145.1 53.8,123.7 68,157.8 85.8,124.7 96.5,144.8 105.9,124.7 119.2,147.4 
			132.8,123.4 143.8,152.6 158.7,120.8 169.1,131.9 173.9,115.8 		"/>
		<polygon class="st6" points="35,161.9 34.5,216.1 19,224.9 21.9,249.5 25.3,228.9 30.9,253 34.8,228.9 38.6,243.4 42.5,226.9 
			40.1,216 43.7,162.3 		"/>
		<polygon class="st9" points="36.6,235.9 38.6,243.4 42.5,226.9 40.1,216 43.7,162.3 38.7,162.1 36.9,216.9 38.7,231.1 		"/>
		<polygon class="st9" points="173.5,149.4 173.9,203.6 189.4,212.4 186.6,237 183.1,216.4 177.6,240.5 173.7,216.4 169.8,230.9 
			166,214.4 168.4,203.5 164.8,149.8 		"/>
		<polygon class="st6" points="171.9,223.4 169.8,230.9 166,214.4 168.4,203.5 164.8,149.8 169.8,149.6 171.6,204.4 169.8,218.6 		
			"/>
	</g>
</g>
</svg>
