<svg xmlns="http://www.w3.org/2000/svg" viewBox="0 0 90.92 90.92"><defs><style>.cls-1{fill:#1c1b1c;stroke:#000;stroke-miterlimit:10;stroke-width:0.2px;}</style></defs><title>icon-design</title><g id="Layer_2" data-name="Layer 2"><g id="Layer_1-2" data-name="Layer 1"><path class="cls-1" d="M21.27,56.05a1.5,1.5,0,0,0-1.51,1.51v7.56a1.51,1.51,0,1,0,3,0V57.56A1.51,1.51,0,0,0,21.27,56.05Z"/><path class="cls-1" d="M89.31,16.73H84.78V1.61A1.52,1.52,0,0,0,83.26.1H74.19a1.52,1.52,0,0,0-1.51,1.51V16.73H1.61A1.52,1.52,0,0,0,.1,18.24V72.68a1.52,1.52,0,0,0,1.51,1.51H9.17v4.54a12.1,12.1,0,0,0,24.2,0V74.19H89.31a1.51,1.51,0,0,0,1.51-1.51V18.24A1.51,1.51,0,0,0,89.31,16.73ZM81.75,39.41h-6V9.17h6Zm-.78,3-2.24,5.23-2.24-5.23ZM75.7,3.12h6v3h-6ZM8.55,19.76,3.12,25.18V19.76Zm2.13,2.14v5.42H5.26ZM30.34,78.73a9.07,9.07,0,0,1-18.14,0V60.58a9.07,9.07,0,0,1,18.14,0ZM87.8,71.17H33.37V60.58a12.1,12.1,0,0,0-24.2,0V71.17h-6V30.34H12.2a1.52,1.52,0,0,0,1.51-1.51V19.76h59V40.93s0,0,0,.06a1.84,1.84,0,0,0,.1.51v0h0L77.33,52.1a1.52,1.52,0,0,0,2,.8,1.54,1.54,0,0,0,.79-.8l4.54-10.58h0v0a1.84,1.84,0,0,0,.1-.51s0,0,0-.06V19.76h3Z"/><path class="cls-1" d="M83.26,65.12h-3a1.51,1.51,0,1,0,0,3h3a1.51,1.51,0,1,0,0-3Z"/><path class="cls-1" d="M74.19,65.12h-3a1.51,1.51,0,1,0,0,3h3a1.51,1.51,0,1,0,0-3Z"/><path class="cls-1" d="M61.75,27.87a1.51,1.51,0,0,0-2.12-.21L44,40.45,29.84,27.71A1.51,1.51,0,0,0,28,27.59L8.31,41.2A1.51,1.51,0,0,0,10,43.72l.06,0L28.71,30.75,42.94,43.56a1.5,1.5,0,0,0,2,0L61.54,30a1.52,1.52,0,0,0,.21-2.13Z"/><path class="cls-1" d="M57.33,47.69a1.55,1.55,0,0,0-2.57,0L47.2,59.78a1.51,1.51,0,0,0,1.29,2.32H63.61a1.52,1.52,0,0,0,1.28-2.32ZM51.21,59.07l4.84-7.73,4.84,7.73Z"/></g></g></svg>