<?xml version="1.0" encoding="utf-8"?>
<!-- Generator: Adobe Illustrator 23.0.3, SVG Export Plug-In . SVG Version: 6.00 Build 0)  -->
<svg version="1.1" id="Layer_1" xmlns="http://www.w3.org/2000/svg" xmlns:xlink="http://www.w3.org/1999/xlink" x="0px" y="0px"
	 width="56.4px" height="72.6px" viewBox="0 0 56.4 72.6" style="enable-background:new 0 0 56.4 72.6;" xml:space="preserve">
<style type="text/css">
	.st0{fill-rule:evenodd;clip-rule:evenodd;fill:#F1ECD5;}
	.st1{fill-rule:evenodd;clip-rule:evenodd;fill:#EDD7A1;}
	.st2{fill-rule:evenodd;clip-rule:evenodd;fill:#EC4490;}
	.st3{fill-rule:evenodd;clip-rule:evenodd;fill:#EF6D9A;}
	.st4{fill-rule:evenodd;clip-rule:evenodd;fill:#E24576;}
	.st5{fill-rule:evenodd;clip-rule:evenodd;fill:#FFFFFF;}
	.st6{fill-rule:evenodd;clip-rule:evenodd;fill:#676767;}
	.st7{fill-rule:evenodd;clip-rule:evenodd;fill:#7B1125;}
</style>
<g>
	<polygon class="st0" points="16.2,17.2 20.6,14.3 5,0 10.4,20.7 	"/>
	<path class="st1" d="M16.2,17.2l4.4-2.9l-4.9-4.5c-1.7,1.1-3.2,2.5-4.6,4.2c-0.7,0.8-1.2,1.6-1.7,2.5l1.1,4.3L16.2,17.2z"/>
	<path class="st1" d="M15,9.2l-0.8-0.7l-5.6,5l0.3,1.2L15,9.2z M13,7.4l-0.6-0.6l-4.7,3.3l0.2,0.9L13,7.4z M11.1,5.6L10.4,5L6.9,7.2
		L7.1,8L11.1,5.6z M8.9,3.5L8.2,3l-2,1.8l0.2,0.9L8.9,3.5z M7.4,2.2L6.8,1.6L5.6,2.4l0.2,0.9L7.4,2.2z"/>
	<polygon class="st0" points="40.2,17.2 35.8,14.3 51.3,0 45.9,20.7 	"/>
	<path class="st1" d="M40.2,17.2l-4.4-2.9l4.9-4.5c1.7,1.1,3.2,2.5,4.6,4.2c0.7,0.8,1.2,1.6,1.8,2.5l-1.1,4.3L40.2,17.2z"/>
	<path class="st1" d="M41.4,9.2l0.8-0.7l5.6,5l-0.3,1.2L41.4,9.2z M43.3,7.4L44,6.8l4.7,3.3l-0.2,0.9L43.3,7.4z M45.3,5.6L45.9,5
		l3.5,2.2L49.2,8L45.3,5.6z M47.5,3.5L48.1,3l2,1.8l-0.2,0.9L47.5,3.5z M49,2.2l0.6-0.6l1.1,0.8l-0.2,0.9L49,2.2z"/>
	<path class="st2" d="M0.5,42.7c-7,39.8,62.4,39.8,55.4,0C47.7-3.7,8.7-3.7,0.5,42.7L0.5,42.7z"/>
	<path class="st3" d="M0.5,42.7C-0.7,49.7,0.4,55.4,3,60c5.1,4.4,11.6,7,18.6,7c16.5,0,30-14.6,30-32.5c0-3.3-0.5-6.5-1.3-9.6
		C36.6-2.6,7.5,3.3,0.5,42.7L0.5,42.7z"/>
	<path class="st4" d="M40.1,25.8c0.1,0.4,0.1,0.7,0.1,1.1c0,5.4-5.4,9.8-12,9.8c-6.6,0-12-4.4-12-9.8c0-0.4,0-0.8,0.1-1.1H40.1z"/>
	<path class="st5" d="M39.5,26.3c0,0.3,0.1,0.7,0.1,1c0,4.9-5.1,8.8-11.4,8.8c-6.3,0-11.4-3.9-11.4-8.8c0-0.3,0-0.7,0.1-1H39.5z"/>
	<path class="st6" d="M36.8,26.3c0,0.3,0.1,0.5,0.1,0.8c0,3.7-3.9,6.7-8.7,6.7c-4.8,0-8.7-3-8.7-6.7c0-0.3,0-0.5,0.1-0.8H36.8z"/>
	<path class="st7" d="M34.4,26.3c0,0.2,0,0.4,0,0.6c0,2.7-2.8,4.8-6.3,4.8c-3.5,0-6.3-2.2-6.3-4.8c0-0.2,0-0.4,0-0.6H34.4z"/>
	<path class="st5" d="M26,26.3c0.9,0,1.6,0.7,1.6,1.6s-0.7,1.7-1.6,1.7c-0.9,0-1.6-0.7-1.6-1.7S25.1,26.3,26,26.3L26,26.3z"/>
	<path class="st4" d="M28.2,39.5c11.7,0,21.2,0.2,21.2,0.4c0,0.2-9.5,0.4-21.2,0.4C16.5,40.3,7,40.1,7,39.9
		C7,39.7,16.5,39.5,28.2,39.5L28.2,39.5z"/>
	<polygon class="st4" points="8.9,39.9 11.6,48.6 13.8,42.3 18,52.3 23.2,42.6 26.3,48.5 29.1,42.6 33,49.2 36.9,42.2 40.2,50.7 
		44.5,41.5 47.6,44.7 49,40 	"/>
	<polygon class="st5" points="8.7,39.8 11.4,48.5 13.5,42.2 17.7,52.2 22.9,42.5 26.1,48.4 28.8,42.5 32.7,49.1 36.7,42.1 
		39.9,50.7 44.3,41.4 47.3,44.6 48.7,39.9 	"/>
	<path class="st4" d="M28.2,15.6c6,0,10.9,0.2,10.9,0.5c0,0.2-4.9,0.4-10.9,0.4c-6,0-10.9-0.2-10.9-0.4
		C17.3,15.8,22.2,15.6,28.2,15.6L28.2,15.6z"/>
	<path class="st4" d="M28.2,17.9c6,0,10.9,0.2,10.9,0.4c0,0.3-4.9,0.4-10.9,0.4c-6,0-10.9-0.2-10.9-0.4
		C17.3,18.1,22.2,17.9,28.2,17.9L28.2,17.9z"/>
	<path class="st4" d="M7.5,51.2c-0.3-1.1-1.5-1.7-2.6-1.4c-1.1,0.4-1.7,1.5-1.4,2.6c0.3,1.1,1.5,1.7,2.6,1.4
		C7.2,53.5,7.8,52.4,7.5,51.2L7.5,51.2z"/>
	<path class="st4" d="M11,52c-0.2-0.7-0.9-1-1.6-0.8c-0.7,0.2-1,0.9-0.8,1.6c0.2,0.7,0.9,1,1.6,0.8C10.9,53.4,11.3,52.7,11,52L11,52
		z"/>
	<path class="st4" d="M7.6,47.8c-0.1-0.5-0.6-0.7-1.1-0.6c-0.5,0.2-0.7,0.7-0.6,1.1c0.2,0.5,0.7,0.7,1.1,0.6
		C7.5,48.8,7.8,48.3,7.6,47.8L7.6,47.8z"/>
	<path class="st4" d="M32.4,57.9c-1.1,0.3-1.7,1.5-1.4,2.6c0.3,1.1,1.5,1.7,2.6,1.4c1.1-0.3,1.7-1.5,1.4-2.6
		C34.7,58.2,33.5,57.6,32.4,57.9L32.4,57.9z"/>
	<path class="st4" d="M33.2,54.4c-0.7,0.2-1,0.9-0.9,1.6c0.2,0.7,0.9,1,1.6,0.9c0.7-0.2,1-0.9,0.9-1.6
		C34.6,54.5,33.9,54.2,33.2,54.4L33.2,54.4z"/>
	<path class="st4" d="M29,57.7c-0.5,0.1-0.7,0.6-0.6,1.1c0.1,0.5,0.6,0.7,1.1,0.6c0.5-0.1,0.7-0.6,0.6-1.1
		C30,57.8,29.5,57.6,29,57.7L29,57.7z"/>
	<path class="st4" d="M11.4,32.8c0.2-1.1-0.6-2.2-1.8-2.4c-1.1-0.2-2.2,0.6-2.4,1.8c-0.2,1.1,0.6,2.2,1.8,2.4
		C10.2,34.7,11.2,33.9,11.4,32.8L11.4,32.8z"/>
	<path class="st4" d="M14.2,35c0.1-0.7-0.4-1.3-1.1-1.4c-0.7-0.1-1.3,0.4-1.4,1.1c-0.1,0.7,0.4,1.3,1.1,1.4
		C13.5,36.2,14.1,35.7,14.2,35L14.2,35z"/>
	<path class="st4" d="M13,29.8c0.1-0.5-0.3-0.9-0.7-1c-0.5-0.1-0.9,0.3-1,0.8c-0.1,0.5,0.3,0.9,0.8,1C12.5,30.6,12.9,30.3,13,29.8
		L13,29.8z"/>
	<path class="st4" d="M45.2,29.9c-0.6-1-0.3-2.3,0.8-2.9c1-0.6,2.3-0.2,2.9,0.8c0.6,1,0.3,2.3-0.8,2.9C47,31.2,45.8,30.9,45.2,29.9
		L45.2,29.9z"/>
	<path class="st4" d="M43.3,33c-0.3-0.6-0.2-1.4,0.5-1.7c0.6-0.3,1.4-0.1,1.7,0.5c0.3,0.6,0.2,1.4-0.5,1.7
		C44.5,33.8,43.7,33.6,43.3,33L43.3,33z"/>
	<path class="st4" d="M42.6,27.7c-0.3-0.4-0.1-1,0.3-1.2c0.4-0.2,1-0.1,1.2,0.3c0.3,0.4,0.1,1-0.3,1.2
		C43.4,28.3,42.8,28.1,42.6,27.7L42.6,27.7z"/>
</g>
</svg>
