<?xml version="1.0" encoding="utf-8"?>
<!-- Generator: Adobe Illustrator 22.0.0, SVG Export Plug-In . SVG Version: 6.00 Build 0)  -->
<svg version="1.1" id="Layer_1" xmlns="http://www.w3.org/2000/svg" xmlns:xlink="http://www.w3.org/1999/xlink" x="0px" y="0px"
	 width="64px" height="72px" viewBox="0 0 64 72" style="enable-background:new 0 0 64 72;" xml:space="preserve">
<style type="text/css">
	.st0{fill:#EF6D9A;}
</style>
<g>
	<path d="M32,0c-3.6,0-7.3,0.6-11.1,1.9C8,6.2,0,18.5,0,32.1c0,16.2,10.3,27.6,27.6,38.6c1.3,0.9,2.9,1.3,4.4,1.3l0,0
		c1.5,0,3.1-0.4,4.4-1.3C53.8,59.6,64,48.3,64,32C64,14.3,49.7,0,32,0z"/>
	<path class="st0" d="M31.9,66.1C13.7,54.4,6.2,44.5,6.2,31.8c0-11.4,6.5-20.9,16.7-24.3C25.9,6.4,29,6,32,6
		c14.2,0,25.8,11.6,25.8,25.8C57.8,44.5,50.4,54.4,31.9,66.1z"/>
</g>
</svg>
