<?xml version="1.0" encoding="utf-8"?>
<!-- Generator: Adobe Illustrator 23.0.3, SVG Export Plug-In . SVG Version: 6.00 Build 0)  -->
<svg version="1.1" id="Layer_1" xmlns="http://www.w3.org/2000/svg" xmlns:xlink="http://www.w3.org/1999/xlink" x="0px" y="0px"
	 width="326px" height="474px" viewBox="0 0 326 474" style="enable-background:new 0 0 326 474;" xml:space="preserve">
<style type="text/css">
	.st0{fill-rule:evenodd;clip-rule:evenodd;fill:#D97B33;}
	.st1{fill-rule:evenodd;clip-rule:evenodd;fill:#B9612F;}
	.st2{fill-rule:evenodd;clip-rule:evenodd;fill:#F2EDD7;}
	.st3{fill-rule:evenodd;clip-rule:evenodd;fill:#EDD7A5;}
	.st4{fill-rule:evenodd;clip-rule:evenodd;fill:#EB4891;}
	.st5{fill-rule:evenodd;clip-rule:evenodd;fill:#EE6F9B;}
	.st6{fill-rule:evenodd;clip-rule:evenodd;fill:#E14877;}
	.st7{fill-rule:evenodd;clip-rule:evenodd;fill:#FFFFFF;}
	.st8{fill-rule:evenodd;clip-rule:evenodd;fill:#676767;}
	.st9{fill-rule:evenodd;clip-rule:evenodd;fill:#7A1327;}
	.st10{fill-rule:evenodd;clip-rule:evenodd;fill:#292A2B;}
</style>
<title>monster</title>
<g>
	<g id="Layer_1-2">
		<path class="st0" d="M130.8,407.3h24.4V474h-60c0,0,23.2-19,35.6-26.3L130.8,407.3z"/>
		<polygon class="st1" points="144,407.3 155.1,407.3 155.1,456.1 155.1,463.6 155.1,474 144,474 		"/>
		<path class="st1" d="M195.2,407.3h-24.3V474h60c0,0-23.2-19-35.6-26.3L195.2,407.3z"/>
		<polygon class="st0" points="182,407.3 170.9,407.3 170.9,456.1 170.9,463.6 170.9,474 182,474 		"/>
		<polygon class="st2" points="93.5,99.6 118.9,82.8 29.1,0 60.4,120 		"/>
		<path class="st3" d="M93.5,99.6l25.4-16.8L90.4,56.5c-9.9,6.7-18.8,14.8-26.4,24c-3.7,4.5-7.1,9.3-10.1,14.4l6.5,25.1L93.5,99.6z"
			/>
		<path class="st3" d="M86.6,53l-4.7-4.3L49.3,77.5l1.8,6.8L86.6,53z M75.4,42.7l-3.7-3.4L44.2,58.1l1.3,5.1L75.4,42.7z M64.1,32.3
			l-3.7-3.5L39.9,41.4l1.3,5L64.1,32.3z M51.3,20.5l-3.7-3.4L36.3,27.5l1.4,5.5L51.3,20.5z M42.8,12.6l-3.7-3.4l-6.4,4.4l1.3,5.1
			L42.8,12.6z"/>
		<polygon class="st2" points="232.5,99.6 207.1,82.8 296.9,0 265.6,120 		"/>
		<path class="st3" d="M232.5,99.6l-25.4-16.8l28.6-26.3c9.9,6.7,18.8,14.8,26.4,24c3.7,4.5,7.1,9.3,10.2,14.4l-6.6,25.1L232.5,99.6
			z"/>
		<path class="st3" d="M239.5,53l4.6-4.3l32.6,28.8l-1.8,6.8L239.5,53z M250.7,42.7l3.7-3.4l27.4,18.9l-1.4,5.1L250.7,42.7z
			 M261.9,32.3l3.8-3.5l20.4,12.6l-1.3,5L261.9,32.3z M274.7,20.5l3.6-3.4l11.4,10.4l-1.4,5.5L274.7,20.5z M283.2,12.6l3.7-3.4
			l6.4,4.4l-1.3,5.1L283.2,12.6z"/>
		<path class="st4" d="M2.9,247.1c-40.7,230.3,360.9,230.3,320.2,0C275.6-21.4,50.4-21.4,2.9,247.1z"/>
		<path class="st5" d="M2.9,247.1c-7.1,40.3-0.7,73.5,14.6,99.7C47,372.2,84.4,387.4,125,387.4c95.7,0,173.3-84.3,173.3-188.1
			c0-18.7-2.5-37.3-7.6-55.2C211.7-15.2,43.2,19.1,2.9,247.1z"/>
		<path class="st6" d="M231.7,149.2c0.3,2.2,0.5,4.3,0.5,6.5c0,31.4-31,56.8-69.2,56.8s-69.2-25.4-69.2-56.8c0-2.2,0.2-4.4,0.5-6.5
			H231.7z"/>
		<path class="st7" d="M228.6,152.1c0.3,1.9,0.4,3.9,0.4,5.9c0,28.1-29.5,50.9-66,50.9S97,186.1,97,158c0-2,0.1-3.9,0.4-5.9H228.6z"
			/>
		<path class="st8" d="M213.1,152.1c0.2,1.5,0.3,3,0.4,4.4c0,21.5-22.6,38.9-50.4,38.9s-50.4-17.4-50.4-38.9c0-1.5,0.1-3,0.3-4.4
			L213.1,152.1z"/>
		<path class="st9" d="M199.1,152.1c0.2,1.1,0.3,2.1,0.3,3.2c0,15.5-16.3,28-36.3,28s-36.4-12.5-36.4-28c0-1.1,0.1-2.1,0.3-3.2
			H199.1z"/>
		<path class="st7" d="M150.2,152.1c5.3,0,9.6,4.3,9.6,9.5c0,5.3-4.3,9.6-9.5,9.6c-5.3,0-9.6-4.3-9.6-9.5c0,0,0,0,0,0
			C140.6,156.4,144.9,152.2,150.2,152.1C150.1,152.1,150.2,152.1,150.2,152.1z"/>
		<path class="st6" d="M163,228.4c67.7,0,122.5,1.1,122.5,2.5s-54.8,2.4-122.5,2.4s-122.6-1.1-122.6-2.4S95.3,228.4,163,228.4z"/>
		<polygon class="st6" points="51.8,230.7 67.3,280.9 79.9,244.7 104,302.3 134.2,246.4 152.3,280.4 168.2,246.4 190.6,284.8 
			213.7,244.1 232.4,293.5 257.6,239.8 275.1,258.4 283.2,231.3 		"/>
		<polygon class="st7" points="50.2,230.2 65.7,280.4 78.3,244.2 102.4,301.8 132.6,245.8 150.7,279.8 166.6,245.8 189.1,284.2 
			212.1,243.6 230.8,293 256,239.3 273.6,257.9 281.7,230.8 		"/>
		<path class="st6" d="M163,90.2c34.8,0,63,1.2,63,2.6s-28.2,2.6-63,2.6s-63-1.2-63-2.6S128.2,90.2,163,90.2z"/>
		<path class="st6" d="M163,103.4c34.8,0,63,1.1,63,2.6s-28.2,2.6-63,2.6s-63-1.1-63-2.6S128.2,103.4,163,103.4z"/>
		<polygon class="st8" points="48.3,330 47.7,399.1 28,410.2 31.7,441.6 36,415.2 43.1,446 48,415.2 52.9,433.8 57.9,412.8 
			54.8,398.9 59.4,330.5 		"/>
		<polygon class="st10" points="50.4,424.2 52.9,433.8 57.9,412.8 54.8,398.9 59.4,330.5 53.1,330.3 50.7,400 53,418.1 		"/>
		<path class="st4" d="M70.7,324.5v0.1c0,4-7.2,7.3-16.2,7.3s-16.2-3.3-16.2-7.3c0-0.3,0-0.6,0.1-0.9c5.6,1.8,11.5,2.7,17.5,2.6
			C60.9,326.3,65.9,325.7,70.7,324.5L70.7,324.5z"/>
		<polygon class="st10" points="277.8,330 278.3,399.1 298.1,410.2 294.4,441.6 290,415.2 283,446 278.1,415.2 273.1,433.8 
			268.2,412.8 271.3,398.9 266.7,330.5 		"/>
		<polygon class="st8" points="275.7,424.2 273.1,433.8 268.2,412.8 271.3,398.9 266.7,330.5 273,330.3 275.3,400 273.1,418.1 		"/>
		<path class="st5" d="M255.4,324.5v0.1c0,4,7.2,7.3,16.2,7.3s16.2-3.3,16.2-7.3c0-0.3,0-0.6-0.1-0.9c-5.6,1.8-11.5,2.7-17.5,2.6
			C265.2,326.3,260.2,325.7,255.4,324.5L255.4,324.5z"/>
		<path class="st6" d="M43.4,296.4c-2-6.4-8.9-9.9-15.3-7.9c-6.4,2-9.9,8.9-7.9,15.3c2,6.4,8.8,9.9,15.2,7.9
			C41.8,309.6,45.4,302.8,43.4,296.4C43.4,296.4,43.4,296.4,43.4,296.4z"/>
		<path class="st6" d="M63.9,300.8c-1.2-3.8-5.3-6-9.1-4.8s-6,5.3-4.8,9.1s5.3,6,9.1,4.8c0,0,0,0,0,0
			C62.9,308.7,65.1,304.7,63.9,300.8C63.9,300.8,63.9,300.8,63.9,300.8z"/>
		<path class="st6" d="M44.2,276.7c-0.9-2.7-3.8-4.2-6.5-3.4c-2.7,0.9-4.2,3.8-3.4,6.5c0.9,2.7,3.8,4.2,6.5,3.4
			c2.7-0.8,4.2-3.7,3.4-6.4C44.2,276.8,44.2,276.7,44.2,276.7z"/>
		<path class="st6" d="M187.4,334.9c-6.4,1.9-10.1,8.7-8.1,15.1s8.7,10.1,15.1,8.1c6.4-1.9,10.1-8.7,8.1-15.1
			C200.6,336.6,193.9,332.9,187.4,334.9C187.5,334.9,187.4,334.9,187.4,334.9L187.4,334.9z"/>
		<path class="st6" d="M192.1,314.4c-3.9,1.1-6.1,5.2-4.9,9.1s5.2,6.1,9.1,4.9c3.9-1.1,6.1-5.2,4.9-9.1c0,0,0,0,0,0
			C200,315.5,196,313.3,192.1,314.4z"/>
		<path class="st6" d="M167.7,333.8c-2.7,0.8-4.3,3.7-3.5,6.4s3.7,4.3,6.4,3.5c2.7-0.8,4.3-3.7,3.5-6.4c0,0,0,0,0,0
			C173.4,334.5,170.5,333,167.7,333.8C167.8,333.8,167.7,333.8,167.7,333.8z"/>
		<path class="st6" d="M65.9,189.5c1-6.7-3.6-12.8-10.3-13.8c-6.7-1-12.8,3.6-13.8,10.3c-1,6.7,3.6,12.8,10.3,13.8c0,0,0,0,0,0
			C58.7,200.7,64.9,196.2,65.9,189.5z"/>
		<path class="st6" d="M82.4,202.5c0.6-4-2.1-7.7-6.1-8.3s-7.7,2.1-8.3,6.1c-0.6,4,2.1,7.7,6.1,8.3
			C78.1,209.2,81.8,206.5,82.4,202.5C82.4,202.5,82.4,202.5,82.4,202.5z"/>
		<path class="st6" d="M75.2,172.1c0.4-2.8-1.5-5.4-4.2-5.8c0,0,0,0-0.1,0c-2.8-0.5-5.5,1.4-6,4.2c-0.5,2.8,1.4,5.5,4.2,6
			c0.1,0,0.1,0,0.2,0c2.8,0.4,5.4-1.5,5.8-4.2C75.2,172.2,75.2,172.2,75.2,172.1L75.2,172.1z"/>
		<path class="st6" d="M261.3,172.7c-3.4-5.8-1.4-13.2,4.4-16.6s13.2-1.4,16.6,4.4c3.4,5.8,1.4,13.2-4.4,16.6
			C272.1,180.5,264.7,178.6,261.3,172.7C261.3,172.8,261.3,172.8,261.3,172.7L261.3,172.7z"/>
		<path class="st6" d="M250.7,190.9c-2-3.5-0.9-8,2.6-10s8-0.9,10,2.6c2,3.5,0.9,8-2.6,10c0,0,0,0,0,0
			C257.2,195.5,252.7,194.3,250.7,190.9z"/>
		<path class="st6" d="M246.1,160.1c-1.4-2.5-0.6-5.6,1.8-7.1c2.5-1.4,5.6-0.6,7.1,1.8c1.4,2.5,0.6,5.6-1.8,7.1c0,0,0,0,0,0
			C250.7,163.4,247.6,162.5,246.1,160.1z"/>
	</g>
</g>
</svg>
