<?xml version="1.0" encoding="utf-8"?>
<!-- Generator: Adobe Illustrator 23.0.3, SVG Export Plug-In . SVG Version: 6.00 Build 0)  -->
<svg version="1.1" id="Layer_1" xmlns="http://www.w3.org/2000/svg" xmlns:xlink="http://www.w3.org/1999/xlink" x="0px" y="0px"
	 width="232px" height="306px" viewBox="0 0 232 306" style="enable-background:new 0 0 232 306;" xml:space="preserve">
<style type="text/css">
	.st0{fill-rule:evenodd;clip-rule:evenodd;fill:#B9612F;stroke:#000000;stroke-width:3;stroke-miterlimit:10;}
	.st1{fill-rule:evenodd;clip-rule:evenodd;fill:#F2EDD7;stroke:#000000;stroke-width:4;stroke-miterlimit:10;}
	.st2{fill-rule:evenodd;clip-rule:evenodd;fill:#E06997;stroke:#000000;stroke-width:4;stroke-miterlimit:10;}
	.st3{fill-rule:evenodd;clip-rule:evenodd;fill:#EE6F9B;}
	.st4{fill-rule:evenodd;clip-rule:evenodd;fill:#E14877;}
	.st5{fill-rule:evenodd;clip-rule:evenodd;fill:#FFFFFF;stroke:#0F0F0F;stroke-width:2;stroke-miterlimit:10;}
	.st6{fill-rule:evenodd;clip-rule:evenodd;fill:#676767;}
	.st7{fill-rule:evenodd;clip-rule:evenodd;fill:#7A1327;}
	.st8{fill-rule:evenodd;clip-rule:evenodd;fill:#FFFFFF;}
</style>
<title>monster</title>
<g>
	<g id="Layer_1-2">
		<path class="st0" d="M93.5,257.9h17v46.6h-42c0,0,16.2-13.3,24.9-18.4L93.5,257.9z"/>
		<path class="st0" d="M138.5,257.9h-17v46.6h42c0,0-16.2-13.3-24.9-18.4L138.5,257.9z"/>
		<polygon class="st1" points="161.7,44.5 178.6,57.5 186.8,3.6 140.6,27.3 		"/>
		<polygon class="st1" points="67.4,42.7 85.2,30.9 36.9,5.6 44.3,57 		"/>
		<path class="st2" d="M4,145.9c-28.5,161.1,252.4,161.1,223.9,0C194.8-41.9,37.2-41.9,4,145.9z"/>
		<path class="st3" d="M7.4,143.4c-4.7,26.9-0.3,55.2,9.7,72.7c19.5,17,43.9,20.9,70.7,20.9c63,0,98.8-38,117.8-104.7
			c4.6-16.3,2.9-47.7-5.8-64C146.2-31.6,33.9-8.8,7.4,143.4L7.4,143.4z"/>
		<path class="st4" d="M164.1,77.4c0.2,1.5,0.3,3,0.3,4.6c0,21.9-21.7,39.7-48.4,39.7S67.6,103.9,67.6,82c0-1.5,0.1-3.1,0.3-4.6
			L164.1,77.4z"/>
		<path class="st5" d="M161.9,79.5c0.2,1.4,0.3,2.7,0.3,4.1c0,19.6-20.7,35.6-46.2,35.6s-46.2-16-46.2-35.6c0-1.4,0.1-2.7,0.3-4.1
			L161.9,79.5z"/>
		<path class="st6" d="M151,79.5c0.2,1,0.2,2.1,0.2,3.1c0,15-15.8,27.2-35.3,27.2S80.8,97.6,80.8,82.6c0-1,0.1-2.1,0.2-3.1H151z"/>
		<path class="st7" d="M141.2,79.5c0.1,0.7,0.2,1.5,0.2,2.2c0,10.8-11.4,19.6-25.4,19.6s-25.4-8.7-25.4-19.6c0-0.8,0.1-1.5,0.2-2.2
			H141.2z"/>
		<path class="st8" d="M107,79.5c3.7,0,6.7,3,6.7,6.7c0,3.7-3,6.7-6.7,6.7c-3.7,0-6.7-3-6.7-6.7c0,0,0,0,0,0
			C100.3,82.5,103.3,79.5,107,79.5C107,79.5,107,79.5,107,79.5z"/>
		<path class="st4" d="M116,132.8c47.3,0,85.7,0.8,85.7,1.7s-38.4,1.7-85.7,1.7s-85.8-0.8-85.8-1.7S68.6,132.8,116,132.8z"/>
		<polygon class="st4" points="38.2,134.4 49,169.5 57.9,144.2 74.7,184.5 95.8,145.4 108.5,169.1 119.6,145.4 135.3,172.2 
			151.5,143.8 164.5,178.3 182.2,140.8 194.4,153.8 200.1,134.9 		"/>
		<path class="st4" d="M116,36.2c24.3,0,44,0.8,44,1.8s-19.7,1.8-44,1.8S72,39,72,38S91.7,36.2,116,36.2z"/>
		<path class="st4" d="M116,45.4c24.3,0,44,0.8,44,1.8S140.3,49,116,49s-44-0.8-44-1.8S91.7,45.4,116,45.4z"/>
		<polygon class="st5" points="42.1,131.1 52.5,164.9 61,140.6 77.2,179.3 97.5,141.7 109.8,164.6 120.5,141.7 135.6,167.5 
			151.1,140.2 163.7,173.4 180.7,137.2 192.5,149.8 197.9,131.6 		"/>
	</g>
</g>
</svg>
