<?xml version="1.0" encoding="utf-8"?>
<!-- Generator: Adobe Illustrator 23.0.1, SVG Export Plug-In . SVG Version: 6.00 Build 0)  -->
<svg version="1.1" id="Layer_1" xmlns="http://www.w3.org/2000/svg" xmlns:xlink="http://www.w3.org/1999/xlink" x="0px" y="0px"
	 width="72px" height="72px" viewBox="0 0 72 72" style="enable-background:new 0 0 72 72;" xml:space="preserve">
<style type="text/css">
	.st0{fill:#327AF9;}
</style>
<title>icon-desgin</title>
<g>
	<g id="Layer_1-2">
		<path class="st0" d="M16.8,44.4c-0.7,0-1.2,0.5-1.2,1.2l0,0v6c0,0.7,0.5,1.2,1.2,1.2c0.7,0,1.2-0.5,1.2-1.2v-6
			C18,44.9,17.5,44.4,16.8,44.4L16.8,44.4z"/>
		<path class="st0" d="M70.8,13.2h-3.6v-12C67.2,0.5,66.7,0,66,0h-7.2c-0.7,0-1.2,0.5-1.2,1.2c0,0,0,0,0,0v12H1.2
			c-0.7,0-1.2,0.5-1.2,1.2v43.2c0,0.7,0.5,1.2,1.2,1.2c0,0,0,0,0,0h6v3.6c0,5.3,4.3,9.6,9.6,9.6s9.6-4.3,9.6-9.6v-3.6h44.4
			c0.7,0,1.2-0.5,1.2-1.2V14.4C72,13.7,71.5,13.2,70.8,13.2z M64.8,31.2H60v-24h4.8V31.2z M64.2,33.6l-1.8,4.1l-1.8-4.2L64.2,33.6z
			 M60,2.4h4.8v2.4H60V2.4z M6.7,15.6l-4.3,4.3v-4.3H6.7z M8.4,17.3v4.3H4.1L8.4,17.3z M24,62.4c0,4-3.2,7.2-7.2,7.2
			s-7.2-3.2-7.2-7.2V48c0-4,3.2-7.2,7.2-7.2S24,44,24,48V62.4z M69.6,56.4H26.4V48c0-5.3-4.3-9.6-9.6-9.6c-5.3,0-9.6,4.3-9.6,9.6
			v8.4H2.4V24h7.2c0.7,0,1.2-0.5,1.2-1.2l0,0v-7.2h46.8v16.8c0,0,0,0,0,0c0,0.1,0,0.3,0.1,0.4l0,0l0,0l3.6,8.4
			c0.3,0.6,1,0.9,1.6,0.6c0.3-0.1,0.5-0.4,0.6-0.6l3.6-8.4l0,0l0,0c0-0.1,0.1-0.3,0.1-0.4c0,0,0,0,0,0V15.6h2.4L69.6,56.4z"/>
		<path class="st0" d="M66,51.6h-2.4c-0.7,0-1.2,0.5-1.2,1.2s0.5,1.2,1.2,1.2l0,0H66c0.7,0,1.2-0.5,1.2-1.2S66.7,51.6,66,51.6z"/>
		<path class="st0" d="M58.8,51.6h-2.4c-0.7,0-1.2,0.5-1.2,1.2s0.5,1.2,1.2,1.2l0,0h2.4c0.7,0,1.2-0.5,1.2-1.2S59.5,51.6,58.8,51.6z
			"/>
		<path class="st0" d="M48.9,22c-0.4-0.5-1.2-0.6-1.7-0.2c0,0,0,0,0,0L34.8,32L23.6,21.9c-0.4-0.4-1-0.4-1.5-0.1L6.5,32.6
			c-0.6,0.3-0.8,1.1-0.4,1.6c0.3,0.6,1.1,0.8,1.6,0.4c0,0,0.1,0,0.1-0.1l0,0l14.9-10.3L34,34.5c0.4,0.4,1.1,0.4,1.6,0l13.2-10.8
			C49.3,23.3,49.4,22.5,48.9,22C48.9,22,48.9,22,48.9,22z"/>
		<path class="st0" d="M45.4,37.8c-0.4-0.6-1.2-0.7-1.7-0.3c-0.1,0.1-0.2,0.2-0.3,0.3l-6,9.6c-0.3,0.6-0.2,1.3,0.4,1.6
			c0.2,0.1,0.4,0.2,0.6,0.2h12c0.7,0,1.2-0.6,1.2-1.2c0-0.2-0.1-0.4-0.2-0.6L45.4,37.8z M40.6,46.8l3.8-6.1l3.8,6.1H40.6z"/>
	</g>
</g>
</svg>
