<?xml version="1.0" encoding="utf-8"?>
<!-- Generator: Adobe Illustrator 23.0.1, SVG Export Plug-In . SVG Version: 6.00 Build 0)  -->
<svg version="1.1" id="Layer_1" xmlns="http://www.w3.org/2000/svg" xmlns:xlink="http://www.w3.org/1999/xlink" x="0px" y="0px"
	 width="166.5px" height="42.6px" viewBox="0 0 166.5 42.6" style="enable-background:new 0 0 166.5 42.6;" xml:space="preserve">
<style type="text/css">
	.st0{fill:#437DFF;}
	.st1{fill:#437DFF;stroke:#437DFF;stroke-miterlimit:10;}
</style>
<title>logo</title>
<g>
	<g id="Layer_1-2">
		<path class="st0" d="M54,14.8c0.4-0.1,0.8-0.1,1.3-0.2l1.4-0.1l1.4-0.1h1.2c0.9,0,1.7,0.1,2.6,0.2c0.8,0.1,1.6,0.4,2.3,0.8
			c0.6,0.4,1.2,0.9,1.6,1.6c0.4,0.8,0.6,1.7,0.6,2.6c0.1,1.3-0.3,2.6-1.1,3.7c-0.7,1-1.7,1.7-2.8,2l1.3,0.8l4.3,7.1h-4.2l-4.2-7.3
			l-1.9-0.3v7.6H54V14.8z M59.6,17.6c-0.4,0-0.7,0-1.1,0c-0.3,0-0.6,0-0.8,0.1v5.4h1.5c0.9,0,1.7-0.2,2.4-0.7c0.7-0.6,1-1.4,0.9-2.3
			c0-0.7-0.2-1.4-0.8-1.9C61.1,17.8,60.4,17.5,59.6,17.6L59.6,17.6z"/>
		<path class="st0" d="M69.8,20.7c0.8-0.3,1.7-0.6,2.5-0.8c1-0.2,2-0.3,3.1-0.3c0.8,0,1.6,0.1,2.3,0.3c1.1,0.4,2,1.3,2.3,2.4
			c0.2,0.6,0.2,1.3,0.2,1.9c0,0.8,0,1.6-0.1,2.4s-0.1,1.6-0.1,2.3s0,1.5,0.1,2.2c0.1,0.7,0.2,1.4,0.4,2h-2.8l-0.6-1.8H77
			c-0.4,0.6-0.9,1.1-1.5,1.4c-0.7,0.4-1.6,0.6-2.4,0.6c-0.6,0-1.1-0.1-1.7-0.3c-0.5-0.2-0.9-0.4-1.3-0.8c-0.4-0.3-0.6-0.8-0.8-1.2
			c-0.2-0.5-0.3-1-0.3-1.5c0-0.7,0.2-1.5,0.6-2.1c0.4-0.6,0.9-1.1,1.6-1.4c0.8-0.4,1.6-0.6,2.4-0.7c1.1-0.1,2.1-0.2,3.2-0.1
			c0.2-0.7,0.1-1.5-0.2-2.1c-0.3-0.4-0.9-0.6-1.8-0.6c-0.7,0-1.5,0.1-2.2,0.2c-0.7,0.1-1.3,0.3-1.9,0.6L69.8,20.7z M74.2,30.6
			c0.6,0,1.2-0.1,1.7-0.5c0.4-0.3,0.7-0.6,0.9-1v-1.7c-0.5,0-1.1,0-1.6,0c-0.5,0-0.9,0.1-1.3,0.2c-0.3,0.1-0.7,0.3-0.9,0.5
			c-0.2,0.2-0.4,0.6-0.3,0.9c0,0.4,0.1,0.8,0.4,1.1C73.3,30.5,73.8,30.6,74.2,30.6z"/>
		<path class="st0" d="M88.6,29.6c0-0.3-0.2-0.7-0.4-0.9c-0.4-0.2-0.7-0.4-1.1-0.6c-0.4-0.2-0.9-0.4-1.5-0.5c-0.5-0.2-1-0.4-1.5-0.8
			c-0.5-0.3-0.8-0.8-1.1-1.2c-0.3-0.6-0.5-1.3-0.4-2c-0.1-1.1,0.4-2.2,1.2-3c1-0.7,2.2-1.1,3.4-1c0.9,0,1.8,0.1,2.8,0.3
			c0.7,0.2,1.3,0.4,1.9,0.7L91,23.1c-0.4-0.2-0.9-0.3-1.5-0.5c-0.6-0.2-1.3-0.3-1.9-0.3c-1,0-1.6,0.4-1.6,1.2c0,0.3,0.2,0.6,0.4,0.8
			c0.4,0.2,0.7,0.4,1.1,0.5l1.5,0.5c0.5,0.2,1,0.4,1.5,0.8c0.5,0.3,0.8,0.7,1.1,1.2c0.3,0.6,0.5,1.2,0.4,1.9
			c0.1,1.2-0.4,2.4-1.3,3.2c-1.1,0.9-2.5,1.3-3.9,1.2c-0.9,0-1.8-0.1-2.7-0.4c-0.7-0.2-1.4-0.5-2-0.8l1-2.6c0.5,0.3,1.1,0.5,1.6,0.7
			c0.7,0.2,1.4,0.3,2.1,0.3c0.4,0,0.9-0.1,1.2-0.3C88.5,30.3,88.7,29.9,88.6,29.6z"/>
		<path class="st0" d="M93.7,26.6c-0.1-1.9,0.5-3.7,1.7-5.2c1.2-1.3,2.9-1.9,4.6-1.8c0.9,0,1.9,0.1,2.8,0.5c0.8,0.3,1.4,0.8,1.9,1.4
			c0.5,0.7,0.9,1.4,1.2,2.2c0.3,0.9,0.4,1.9,0.4,2.9c0.1,1.9-0.5,3.7-1.6,5.2c-1.2,1.3-2.9,1.9-4.6,1.8c-0.9,0-1.9-0.1-2.8-0.5
			c-0.8-0.3-1.5-0.8-2-1.4c-0.5-0.6-0.9-1.4-1.2-2.2C93.8,28.5,93.7,27.6,93.7,26.6z M97.3,26.6c0,0.5,0.1,1.1,0.2,1.6
			c0.1,0.5,0.3,0.9,0.5,1.3c0.2,0.4,0.5,0.7,0.8,0.9c0.4,0.2,0.8,0.3,1.2,0.3c0.8,0,1.6-0.3,2-1c0.5-1,0.8-2,0.7-3.1
			c0-1-0.2-2.1-0.6-3c-0.4-0.7-1.2-1.1-2.1-1.1c-0.8,0-1.5,0.4-2,1C97.4,24.4,97.2,25.5,97.3,26.6z"/>
		<path class="st0" d="M123.2,23.6l0.4-3.7h-0.2l-1.2,3l-4,6.9h-1.2l-4.2-7l-1.2-3h-0.1l0.5,3.7v9.7h-3.5V14.6h3.3l5,8.5l0.9,2.1
			h0.1l0.8-2.2l4.7-8.5h3.3v18.6h-3.6L123.2,23.6z"/>
		<path class="st0" d="M129.9,20.7c0.8-0.3,1.7-0.6,2.5-0.8c1-0.2,2-0.3,3.1-0.3c0.8,0,1.6,0.1,2.3,0.3c1.1,0.4,2,1.3,2.2,2.4
			c0.2,0.6,0.2,1.3,0.2,1.9c0,0.8,0,1.6-0.1,2.4s-0.1,1.6-0.1,2.3s0,1.5,0.1,2.2c0.1,0.7,0.2,1.4,0.4,2h-2.8l-0.6-1.8H137
			c-0.4,0.6-0.9,1.1-1.5,1.4c-0.7,0.4-1.6,0.6-2.4,0.6c-0.6,0-1.1-0.1-1.7-0.3c-1-0.3-1.7-1.1-2.1-2c-0.2-0.5-0.3-1-0.3-1.6
			c0-0.7,0.2-1.4,0.6-2.1c0.4-0.6,0.9-1.1,1.6-1.4c0.8-0.4,1.6-0.6,2.4-0.7c1.1-0.1,2.1-0.2,3.2-0.1c0.2-0.7,0.1-1.5-0.2-2.1
			c-0.3-0.4-0.9-0.6-1.8-0.6c-0.7,0-1.5,0.1-2.2,0.2c-0.7,0.1-1.3,0.3-1.9,0.6L129.9,20.7z M134.3,30.6c0.6,0,1.2-0.1,1.6-0.5
			c0.4-0.3,0.7-0.6,0.9-1v-1.7c-0.5,0-1.1,0-1.6,0c-0.5,0-0.9,0.1-1.3,0.2c-0.3,0.1-0.7,0.3-0.9,0.5c-0.2,0.2-0.4,0.6-0.4,0.9
			c0,0.4,0.1,0.9,0.4,1.2C133.4,30.5,133.8,30.6,134.3,30.6z"/>
		<path class="st0" d="M143.1,19.9h2.5l0.4,1.6h0.1c0.4-0.6,1-1.1,1.6-1.5c0.7-0.3,1.5-0.5,2.3-0.5c1.4-0.1,2.8,0.5,3.8,1.6
			c0.8,1.1,1.2,2.8,1.2,5.1c0,1-0.1,2.1-0.4,3.1c-0.2,0.8-0.6,1.6-1.2,2.3c-0.5,0.6-1.2,1.1-1.9,1.5c-1.3,0.5-2.6,0.6-3.9,0.4
			c-0.4-0.1-0.7-0.2-1.1-0.4v5.5h-3.5V19.9z M149.1,22.5c-0.6,0-1.1,0.1-1.6,0.5c-0.4,0.4-0.7,0.9-0.9,1.5V30
			c0.2,0.2,0.5,0.4,0.8,0.5c0.4,0.1,0.8,0.2,1.1,0.2c0.9,0.1,1.7-0.3,2.2-1c0.6-1.1,0.8-2.3,0.8-3.5c0.1-0.9-0.2-1.9-0.6-2.7
			C150.6,22.8,149.8,22.4,149.1,22.5z"/>
		<path class="st0" d="M163,29.6c0-0.3-0.2-0.7-0.4-0.9c-0.4-0.2-0.7-0.4-1.1-0.6c-0.4-0.2-0.9-0.4-1.5-0.5c-0.5-0.2-1-0.4-1.5-0.8
			c-0.5-0.3-0.8-0.8-1.1-1.2c-0.3-0.6-0.5-1.3-0.4-2c-0.1-1.1,0.4-2.2,1.2-3c1-0.7,2.2-1.1,3.4-1c0.9,0,1.8,0.1,2.7,0.3
			c0.7,0.2,1.3,0.4,1.9,0.7l-0.8,2.5c-0.4-0.2-0.9-0.3-1.6-0.5c-0.6-0.2-1.3-0.3-1.9-0.3c-1,0-1.5,0.4-1.5,1.2
			c0,0.3,0.2,0.6,0.4,0.8c0.4,0.2,0.7,0.4,1.1,0.5l1.5,0.5c0.5,0.2,1,0.4,1.5,0.8c0.5,0.3,0.8,0.7,1.1,1.2c0.3,0.6,0.5,1.2,0.4,1.9
			c0.1,1.2-0.4,2.4-1.3,3.2c-1.1,0.9-2.5,1.3-3.9,1.2c-0.9,0-1.8-0.1-2.6-0.4c-0.7-0.2-1.4-0.5-2-0.8l0.9-2.6
			c0.5,0.3,1.1,0.5,1.6,0.7c0.7,0.2,1.4,0.3,2.1,0.3c0.4,0,0.9-0.1,1.2-0.3C162.9,30.3,163,30,163,29.6z"/>
		<path class="st1" d="M16.8,19.6c3.4,0,6.1-2.8,6.1-6.2s-2.8-6.1-6.2-6.1s-6.1,2.8-6.1,6.2c0,0,0,0,0,0
			C10.6,16.8,13.4,19.5,16.8,19.6z M16.8,9.3c2.3,0,4.1,1.8,4.1,4.1s-1.8,4.1-4.1,4.1s-4.1-1.8-4.1-4.1C12.6,11.2,14.5,9.3,16.8,9.3
			z"/>
		<path class="st1" d="M27.5,30.4c-0.2-0.3-0.5-0.6-0.9-0.6h-4c3.4-5.4,7.2-12.4,7.2-16.3c0-7.2-5.8-13-13-13c-7.2,0-13,5.8-13,13
			l0,0c0,3.9,3.8,10.9,7.2,16.3H7c-0.4,0-0.7,0.2-0.9,0.6L0.6,40.6c-0.1,0.3-0.1,0.7,0,1c0.2,0.3,0.5,0.5,0.9,0.5h30.6
			c0.4,0,0.7-0.2,0.9-0.5c0.2-0.3,0.2-0.7,0-1L27.5,30.4z M16.8,2.5c6.1,0,11,4.9,11,11c0,3.6-4.1,10.8-7.6,16.5
			c-0.3,0.2-0.4,0.4-0.5,0.7c-1.1,1.6-2,3.2-2.9,4.3C16,33.9,15,32.5,14,30.9c0-0.4-0.2-0.7-0.6-0.9c-3.6-5.7-7.6-12.9-7.6-16.4
			C5.8,7.6,10.7,2.6,16.8,2.5z M3.2,40l4.4-8.1h4.6c2,3.1,3.6,5.3,3.7,5.5c0.2,0.3,0.5,0.4,0.8,0.4c0.3,0,0.6-0.2,0.8-0.4
			c1.3-1.8,2.6-3.6,3.8-5.5H26l4.4,8.2L3.2,40z"/>
	</g>
</g>
</svg>
