<svg xmlns="http://www.w3.org/2000/svg" viewBox="0 0 79.08 87.18"><defs><style>.cls-1{fill:none;stroke:#000;stroke-miterlimit:10;stroke-width:3px;}</style></defs><title>icon-rellax</title><g id="Layer_2" data-name="Layer 2"><g id="Layer_1-2" data-name="Layer 1"><path class="cls-1" d="M77.41,18.51C76.17,12,69.35,9.65,64.65,8.77A10.39,10.39,0,0,1,65,11.69a12.94,12.94,0,0,1-1.42,5.76c2.66.62,5,1.68,5.23,2.75a1.34,1.34,0,0,1-.27,1.24C67,23.3,62,24.54,58.27,24.54H46.58c-3.73,0-8.78-1.24-10.28-3.1A1.17,1.17,0,0,1,36,20.2c.18-1.16,2.57-2.13,5.23-2.75a12.24,12.24,0,0,1-1.42-5.76,10.77,10.77,0,0,1,.36-2.92c-4.7.88-11.52,3.27-12.76,9.74a9.93,9.93,0,0,0,2.12,8.42c3,3.63,8.07,5.14,12,5.76-1.16,3.19-3.37,9.75-5.06,15.42-4.6-.09-12.67-.27-15.68-.18a6.4,6.4,0,0,0-4.52,2C13.53,52.71,12.11,60.16,12.11,72L4.22,76.11a5.09,5.09,0,0,0,2.39,9.57,4.34,4.34,0,0,0,2.31-.62L45,66.27c4.61-2,7.18-4.78,8.24-7.53,2-4.87,6.82-20.11,8.6-25.87,3.89-.45,9.92-1.86,13.38-5.94A10,10,0,0,0,77.41,18.51ZM22.48,66.71a54.88,54.88,0,0,1,1-8.68c4.61.09,12.4.18,15.15.27Z"/><circle class="cls-1" cx="52.42" cy="11.69" r="10.19"/></g></g></svg>