<?xml version="1.0" encoding="utf-8"?>
<!-- Generator: Adobe Illustrator 23.0.3, SVG Export Plug-In . SVG Version: 6.00 Build 0)  -->
<svg version="1.1" id="Layer_1" xmlns="http://www.w3.org/2000/svg" xmlns:xlink="http://www.w3.org/1999/xlink" x="0px" y="0px"
	 width="166.9px" height="24px" viewBox="0 0 166.9 24" style="enable-background:new 0 0 166.9 24;" xml:space="preserve">
<style type="text/css">
	.st0{fill:#FFFFFF;}
</style>
<title>logo</title>
<g>
	<g id="Layer_1-2">
		<path class="st0" d="M14.4,8.9l0.4-3.7h-0.2l-1.1,3l-3.9,6.9H8.4l-4.2-7L3,5.3H2.9l0.5,3.7v9.7H0V0h3.3l5,8.5l0.9,2.1h0.1l0.8-2.2
			L14.8,0H18v18.6h-3.6V8.9z"/>
		<path class="st0" d="M21.1,6.1c0.8-0.3,1.7-0.6,2.5-0.8c1-0.2,2-0.3,3-0.3c0.8,0,1.6,0.1,2.4,0.3c0.6,0.2,1.1,0.5,1.5,1
			c0.4,0.4,0.6,0.9,0.8,1.5c0.2,0.6,0.2,1.3,0.2,1.9c0,0.8,0,1.6-0.1,2.4s-0.1,1.6-0.1,2.3s0,1.5,0.1,2.2c0.1,0.7,0.2,1.4,0.4,2
			h-2.9l-0.5-1.8h-0.1c-0.4,0.6-0.9,1.1-1.5,1.4c-0.7,0.4-1.6,0.6-2.4,0.6c-0.6,0-1.1-0.1-1.7-0.3c-0.5-0.2-0.9-0.4-1.3-0.8
			c-0.4-0.3-0.6-0.8-0.8-1.2c-0.2-0.5-0.3-1-0.3-1.6c0-0.7,0.2-1.4,0.5-2.1c0.4-0.6,0.9-1.1,1.6-1.4c0.8-0.4,1.6-0.6,2.4-0.7
			c1.1-0.1,2.1-0.2,3.2-0.1c0.2-0.7,0.1-1.5-0.2-2.1c-0.3-0.4-0.9-0.7-1.8-0.7c-0.7,0-1.5,0.1-2.2,0.2c-0.7,0.1-1.3,0.3-1.9,0.6
			L21.1,6.1z M25.5,16c0.6,0,1.2-0.1,1.6-0.5c0.4-0.3,0.7-0.6,0.9-1v-1.8c-0.5,0-1.1,0-1.6,0c-0.5,0-0.9,0.1-1.3,0.2
			c-0.3,0.1-0.7,0.3-0.9,0.5c-0.2,0.2-0.4,0.6-0.3,0.9c0,0.4,0.1,0.8,0.4,1.1C24.6,15.9,25,16,25.5,16z"/>
		<path class="st0" d="M34.3,5.3h2.5l0.4,1.6h0.1c0.4-0.6,1-1.1,1.7-1.5c0.7-0.3,1.5-0.5,2.3-0.5c1.4-0.1,2.8,0.5,3.7,1.6
			c0.8,1.1,1.2,2.7,1.2,5.1c0,1-0.1,2.1-0.4,3.1c-0.2,0.9-0.6,1.7-1.2,2.3c-0.5,0.6-1.2,1.1-1.9,1.5C42,18.8,41.1,19,40.2,19
			c-0.5,0-0.9,0-1.3-0.1c-0.4-0.1-0.7-0.2-1.1-0.4v5.4h-3.5V5.3z M40.2,7.9c-0.6,0-1.1,0.1-1.6,0.5c-0.4,0.4-0.7,0.9-0.9,1.5v5.5
			c0.6,0.5,1.3,0.7,2,0.6c0.9,0.1,1.7-0.3,2.2-1c0.6-1.1,0.8-2.3,0.8-3.5c0.1-0.9-0.2-1.9-0.6-2.7C41.8,8.2,41,7.8,40.2,7.9z"/>
		<path class="st0" d="M48.7,5.3h2.5l0.4,1.6h0.1c0.4-0.6,1-1.1,1.6-1.5c0.7-0.3,1.5-0.5,2.3-0.5c1.4-0.1,2.8,0.5,3.7,1.6
			c0.8,1.1,1.2,2.7,1.2,5.1c0,1-0.1,2.1-0.4,3.1C60,15.5,59.6,16.3,59,17c-0.5,0.6-1.2,1.1-1.9,1.5c-1.3,0.5-2.7,0.6-4,0.4
			c-0.4-0.1-0.7-0.2-1.1-0.4v5.4h-3.4V5.3z M54.6,7.9C54,7.8,53.4,8,53,8.4c-0.4,0.4-0.7,0.9-0.9,1.5v5.5c0.2,0.2,0.5,0.4,0.8,0.5
			c0.4,0.1,0.8,0.2,1.2,0.2c0.9,0.1,1.7-0.3,2.2-1c0.6-1.1,0.8-2.3,0.7-3.5c0-0.9-0.2-1.9-0.6-2.7C56,8.2,55.3,7.8,54.6,7.9z"/>
		<path class="st0" d="M67.5,12.8l0.5,2.1h0.2l0.3-2.1l2-7.4h3.6l-4,12c-0.3,1-0.7,1.9-1,2.7c-0.3,0.7-0.6,1.5-1,2.1
			c-0.3,0.5-0.7,1-1.2,1.4c-0.5,0.3-1,0.5-1.6,0.5c-0.8,0-1.5-0.1-2.2-0.5l0.6-2.8c0.3,0.1,0.5,0.2,0.8,0.2c0.4,0,0.9-0.2,1.2-0.5
			c0.5-0.5,0.8-1.2,0.9-1.9L60.9,5.3h4.1L67.5,12.8z"/>
		<path class="st0" d="M89.8,8.9l0.4-3.7h-0.2l-1.1,3l-4,6.9h-1.1l-4.2-7l-1.2-2.9h-0.1l0.5,3.7v9.7h-3.4V0h3.3l5,8.5l0.9,2.1h0.1
			l0.8-2.2L90.2,0h3.3v18.6h-3.6V8.9z"/>
		<path class="st0" d="M96,11.9c-0.1-1.9,0.4-3.7,1.6-5.2c1.2-1.3,2.9-1.9,4.6-1.8c0.9,0,1.9,0.1,2.8,0.5c0.7,0.3,1.4,0.8,1.9,1.4
			c0.5,0.7,0.9,1.4,1.2,2.2c0.3,0.9,0.4,1.9,0.4,2.9c0.1,1.9-0.5,3.7-1.6,5.2c-1.2,1.3-2.9,2-4.6,1.9c-0.9,0-1.9-0.1-2.8-0.5
			c-0.8-0.3-1.5-0.8-2-1.4c-0.5-0.6-0.9-1.4-1.2-2.2C96,13.9,96,12.9,96,11.9z M99.6,11.9c0,0.5,0,1.1,0.2,1.6
			c0.1,0.5,0.2,0.9,0.5,1.3c0.2,0.4,0.5,0.7,0.8,0.9c0.4,0.2,0.8,0.3,1.2,0.3c0.8,0,1.6-0.3,2-1c0.5-1,0.7-2,0.7-3.1
			c0-1-0.2-2.1-0.6-3c-0.4-0.8-1.2-1.2-2.1-1.1c-0.8,0-1.5,0.3-2,1C99.7,9.7,99.4,10.8,99.6,11.9L99.6,11.9z"/>
		<path class="st0" d="M119,18.6V11c0.1-0.8-0.1-1.6-0.5-2.3c-0.4-0.5-1-0.8-1.6-0.7c-0.6,0-1.2,0.2-1.7,0.6c-0.5,0.4-0.8,0.9-1,1.4
			v8.6h-3.4V5.3h2.7l0.4,1.8h0.1c0.4-0.6,1-1.1,1.6-1.5c0.8-0.5,1.7-0.7,2.6-0.6c0.6,0,1.2,0.1,1.8,0.3c0.5,0.2,1,0.5,1.3,0.9
			c0.4,0.5,0.7,1.1,0.8,1.7c0.2,0.8,0.3,1.7,0.3,2.6v8.3H119z"/>
		<path class="st0" d="M130.8,14.9c0-0.3-0.2-0.7-0.4-0.9c-0.3-0.2-0.7-0.4-1.1-0.6c-0.4-0.2-0.9-0.4-1.5-0.5
			c-0.5-0.2-1-0.4-1.5-0.8c-0.5-0.3-0.8-0.8-1.1-1.2c-0.3-0.6-0.5-1.3-0.5-1.9c-0.1-1.1,0.4-2.2,1.2-3c1-0.7,2.2-1.1,3.4-1
			c0.9,0,1.8,0.1,2.7,0.3c0.7,0.2,1.3,0.4,1.9,0.7l-0.8,2.5c-0.4-0.2-0.9-0.3-1.5-0.5c-0.6-0.2-1.2-0.3-1.9-0.3
			c-1,0-1.5,0.4-1.5,1.2c0,0.3,0.2,0.6,0.4,0.8c0.4,0.2,0.7,0.4,1.1,0.6l1.5,0.5c0.5,0.2,1,0.4,1.4,0.8c0.5,0.3,0.8,0.7,1.1,1.2
			c0.3,0.6,0.5,1.2,0.4,1.9c0.1,1.2-0.4,2.3-1.2,3.1c-1.1,0.9-2.5,1.3-3.9,1.2c-0.9,0-1.8-0.1-2.6-0.4c-0.7-0.2-1.4-0.5-2-0.8l1-2.6
			c0.5,0.3,1.1,0.5,1.6,0.7c0.7,0.2,1.4,0.3,2.1,0.3c0.4,0,0.9-0.1,1.2-0.3C130.7,15.7,130.9,15.3,130.8,14.9z"/>
		<path class="st0" d="M135.1,5.3h1.9V2.8l3.4-1v3.5h3.2v2.9h-3.2v5.1c0,0.7,0.1,1.4,0.3,2c0.2,0.4,0.6,0.7,1.1,0.6
			c0.3,0,0.6,0,0.9-0.1c0.3-0.1,0.6-0.2,0.9-0.3l0.6,2.7c-0.5,0.3-1.1,0.4-1.7,0.6c-0.6,0.2-1.3,0.2-1.9,0.2c-1,0.1-2-0.3-2.7-0.9
			c-0.7-0.9-1-2-0.9-3.1V8.2h-1.8L135.1,5.3z"/>
		<path class="st0" d="M156.2,17.4c-0.7,0.5-1.4,0.8-2.2,1.1c-0.9,0.3-1.9,0.4-2.9,0.4c-1.8,0.2-3.5-0.5-4.7-1.9
			c-1.1-1.5-1.6-3.3-1.5-5.1c-0.1-1.9,0.5-3.8,1.7-5.2c1.2-1.2,3-1.9,4.7-1.8c0.7,0,1.3,0.1,2,0.3c0.6,0.2,1.2,0.5,1.7,0.9
			c0.5,0.4,0.9,1,1.2,1.6c0.3,0.8,0.5,1.7,0.4,2.6c0,0.4,0,0.8-0.1,1.2c0,0.4-0.1,0.9-0.2,1.3h-8c0,0.9,0.3,1.8,0.9,2.5
			c0.7,0.6,1.6,0.9,2.5,0.9c0.7,0,1.4-0.1,2-0.3c0.5-0.2,0.9-0.4,1.3-0.7L156.2,17.4z M151.3,7.7c-0.8-0.1-1.5,0.2-2,0.8
			c-0.5,0.6-0.7,1.4-0.8,2.2h4.9c0.1-0.8,0-1.5-0.4-2.2C152.6,7.9,152,7.6,151.3,7.7z"/>
		<path class="st0" d="M166.4,8.6c-0.5-0.2-1-0.3-1.5-0.3c-0.6,0-1.1,0.2-1.6,0.5c-0.4,0.3-0.7,0.8-0.8,1.3v8.6h-3.4V5.3h2.7
			l0.4,1.8h0.1c0.3-0.6,0.7-1.1,1.2-1.5c0.5-0.4,1.2-0.6,1.8-0.5c0.5,0,1.1,0.1,1.6,0.3L166.4,8.6z"/>
	</g>
</g>
</svg>
